<svg width="124" height="124" viewBox="0 0 124 124" fill="none" xmlns="http://www.w3.org/2000/svg">
<circle cx="62" cy="62" r="62" fill="#3C9155"/>
<path d="M85.5661 42.4976L63.9448 20.4096L41.5965 42.9733H29.2017V86.0006H95.8338V42.9733L85.5661 42.4976Z" fill="#FF8FAA"/>
<path d="M41.5964 75.7688V52.1639H52.4565C52.4565 52.1639 55.176 41.618 65.2013 42.5514C71.5199 43.1438 73.3508 52.7832 73.3508 52.7832H84.6327V77.2228H41.5964" fill="#F8F1F4"/>
<path d="M52.1423 56.7054H43.2119V75.0328H52.1423V56.7054Z" fill="#285164"/>
<path d="M47.6727 55.1347V75.8226" stroke="#F8F1F4" stroke-width="0.65" stroke-miterlimit="10"/>
<path d="M42.485 62.6111H53.0847" stroke="#F8F1F4" stroke-width="0.65" stroke-miterlimit="10"/>
<path d="M42.485 70.0785H53.0847" stroke="#F8F1F4" stroke-width="0.65" stroke-miterlimit="10"/>
<path d="M82.4876 56.7054H73.5573V75.0328H82.4876V56.7054Z" fill="#285164"/>
<path d="M78.0181 55.1347V75.8226" stroke="#F8F1F4" stroke-width="0.65" stroke-miterlimit="10"/>
<path d="M72.8213 62.6111H83.421" stroke="#F8F1F4" stroke-width="0.65" stroke-miterlimit="10"/>
<path d="M72.8213 70.0785H83.421" stroke="#F8F1F4" stroke-width="0.65" stroke-miterlimit="10"/>
<path d="M54.0182 75.0328V53.0345C54.0182 52.4691 54.1259 51.9036 54.3413 51.3831C55.2568 49.1033 58.2365 43.2156 64.3038 43.5925C68.0824 43.8259 70.3352 48.3135 71.2865 50.7548C71.6456 51.6703 71.8251 52.6306 71.8251 53.6179V75.0328H54.0182Z" fill="#285164"/>
<path d="M63.4243 42.8656V75.8226" stroke="#F8F1F4" stroke-width="0.65" stroke-miterlimit="10"/>
<path d="M52.8245 52.7922H72.8213" stroke="#F8F1F4" stroke-width="0.65" stroke-miterlimit="10"/>
<path d="M52.8245 58.8504H72.8213" stroke="#F8F1F4" stroke-width="0.65" stroke-miterlimit="10"/>
<path d="M53.0847 65.169H72.561" stroke="#F8F1F4" stroke-width="0.65" stroke-miterlimit="10"/>
<path d="M53.0847 70.4375H72.561" stroke="#F8F1F4" stroke-width="0.65" stroke-miterlimit="10"/>
<path d="M55.5887 47.3083H71.2595" stroke="#F8F1F4" stroke-width="0.65" stroke-miterlimit="10"/>
<path d="M73.3417 29.6002L88.3842 43.6016H101.964L94.236 29.6002H73.3417Z" fill="#556F7E"/>
<path d="M25.2975 43.6016L32.9982 29.6002H52.1424L38.7244 43.6016H25.2975Z" fill="#556F7E"/>
<path d="M23.619 87.2178C26.6257 85.7548 30.1979 85.8266 33.6264 85.9253C38.7602 86.0689 43.8941 86.2125 49.0189 86.3561C52.4026 86.4549 55.8132 85.7727 59.143 86.2125C63.8909 86.8498 68.3785 85.324 72.9918 84.5431C78.2962 83.6456 83.7531 86.1497 89.1203 86.2305C93.4553 86.2933 98.5533 85.665 99.8367 87.2267" stroke="#FBFBFB" stroke-width="6.5" stroke-miterlimit="10" stroke-linecap="round"/>
<path d="M33.6532 29.5914C37.3689 28.3169 46.2185 27.9309 49.9971 28.5413" stroke="#FBFBFB" stroke-width="7" stroke-miterlimit="10" stroke-linecap="round"/>
<path d="M76.1422 29.2053C79.9118 28.1103 88.7704 28.1462 92.522 28.9271" stroke="#FBFBFB" stroke-width="7" stroke-miterlimit="10" stroke-linecap="round"/>
<path d="M25.2975 57.2888L63.9897 19.6825L99.5586 57.2888" stroke="#556F7E" stroke-width="2.59" stroke-miterlimit="10" stroke-linecap="round"/>
<path d="M26.5272 57.7734C26.4733 58.644 27.7478 58.8325 28.5915 58.6171C30.3147 58.1683 32.011 57.3336 33.0881 55.9066C33.7612 55.009 34.1292 53.8512 34.0664 52.7473C34.0215 51.9215 34.5869 51.1587 35.4126 51.1138C36.9295 51.033 38.4283 50.4047 39.5143 49.3367C40.6003 48.2686 41.2466 46.7787 41.3453 45.2529C41.3991 44.3644 42.1351 43.7182 43.0237 43.772C44.5764 43.8618 46.165 43.3053 47.26 42.1924C48.2472 41.1872 48.7678 39.7691 48.7678 38.36C48.7678 37.4804 49.4858 36.7265 50.3654 36.8342C51.8732 37.0137 53.4619 36.538 54.5479 35.4699C55.5082 34.5275 56.0108 33.1723 56.0018 31.826C56.0018 30.8567 56.8276 30.1027 57.7789 30.2822C58.9008 30.4887 60.0587 30.381 61.0729 29.8604C62.2755 29.2321 63.0654 28.1102 63.2179 26.7819C63.2808 26.2883 63.927 26.1177 64.2411 26.5126C65.5515 28.1372 66.9696 28.918 69.9763 29.277C70.1199 29.295 70.1737 29.4924 70.0391 29.5553C69.0608 30.0579 68.4954 31.3503 68.6928 32.4812C68.9262 33.8634 69.9673 34.9673 71.0982 35.7841C72.4445 36.7624 74.1767 37.4535 75.7922 37.3458C76.6359 37.2919 77.3629 37.9202 77.3988 38.7638C77.4347 39.9127 77.8386 41.0436 78.5656 41.9321C79.7144 43.3502 81.6441 44.1041 83.4571 43.8259C83.6456 43.799 83.852 43.7631 84.0225 43.8438C84.3546 44.0054 84.3636 44.4631 84.3636 44.8311C84.3816 46.5813 85.5035 48.1789 86.9215 49.202C87.9716 49.956 89.1743 50.4406 90.4129 50.8445C91.0771 51.0599 91.5169 51.7061 91.4451 52.4062C91.3104 53.6986 91.7682 55.0629 92.6926 55.9784C93.9133 57.1721 95.8699 57.54 97.4405 56.8669" stroke="#29533D" stroke-width="2.6" stroke-miterlimit="10"/>
<path d="M58.7391 24.1613V28.7656C58.7391 29.2054 59.1969 29.4836 59.5918 29.2862L63.8371 27.159C64.2499 26.9526 64.2679 26.3602 63.873 26.1269L59.6277 23.6497C59.2328 23.4253 58.7481 23.7036 58.7481 24.1523L58.7391 24.1613Z" fill="#DF362F"/>
<path d="M69.1505 29.0079V24.4036C69.1505 23.9639 68.6927 23.6856 68.2978 23.8831L64.0525 26.0102C63.6397 26.2166 63.6217 26.809 64.0166 27.0424L68.2619 29.5195C68.6568 29.7439 69.1415 29.4657 69.1415 29.0169L69.1505 29.0079Z" fill="#DF362F"/>
<path d="M64.0434 27.895C64.8068 27.895 65.4256 27.2762 65.4256 26.5128C65.4256 25.7495 64.8068 25.1306 64.0434 25.1306C63.2801 25.1306 62.6613 25.7495 62.6613 26.5128C62.6613 27.2762 63.2801 27.895 64.0434 27.895Z" fill="#DF362F"/>
</svg>
