<svg width="50" height="55" viewBox="0 0 50 55" fill="none" xmlns="http://www.w3.org/2000/svg">
<path d="M22.1863 17.1815C22.0002 17.2313 21.8004 17.2342 21.6038 17.182C20.9623 17.0125 19.8187 16.9176 18.6078 16.817C15.1154 16.5268 10.7687 16.1658 9.27274 13.6152C8.57946 12.4332 8.60144 10.9958 9.33828 9.34251C9.35882 9.2962 9.38241 9.25148 9.40884 9.20842C10.3547 7.66956 11.5214 6.85321 12.8757 6.78155C15.8056 6.62651 18.5203 10.1036 20.7015 12.8975C21.451 13.8574 22.1586 14.7639 22.6482 15.2072C23.0423 15.5638 23.1447 16.1449 22.8969 16.6136C22.7444 16.902 22.4835 17.1019 22.1863 17.1815ZM11.3944 10.3699C11.0082 11.2652 10.9559 11.9636 11.239 12.4465C12.1283 13.9624 16.1328 14.295 18.7826 14.5152C18.8828 14.5236 18.9814 14.5317 19.0794 14.54C19.0231 14.4679 18.966 14.3948 18.9086 14.3213C17.2529 12.2005 14.7509 8.99602 13.0083 9.08793C12.4555 9.11748 11.9131 9.54848 11.3944 10.3699Z" fill="#1F6636"/>
<path d="M21.6476 17.3257C21.3501 17.4054 21.0245 17.3627 20.748 17.1893C20.299 16.9073 20.0972 16.3528 20.2601 15.847C20.4626 15.2185 20.6223 14.0793 20.7912 12.8733C21.2832 9.36311 21.8957 4.99477 24.5106 3.66385C25.7195 3.04892 27.1379 3.17261 28.7264 4.03214C28.7708 4.05622 28.8137 4.08337 28.8546 4.11298C30.3193 5.17617 31.057 6.41 31.0477 7.7805C31.0274 10.7373 27.4436 13.2233 24.5641 15.2209C23.5658 15.9134 22.6228 16.5674 22.1521 17.035C22.008 17.1781 21.8332 17.276 21.6476 17.3257ZM25.779 5.63978C25.6982 5.66145 25.6217 5.69063 25.549 5.72751C23.9938 6.519 23.4293 10.5453 23.0557 13.2095C23.0428 13.3021 23.03 13.3934 23.0171 13.4843C23.0979 13.4283 23.1794 13.3715 23.2617 13.3144C25.4465 11.7988 28.7482 9.50845 28.7603 7.75105C28.7643 7.19119 28.3698 6.61255 27.5874 6.03035C26.8543 5.64507 26.2476 5.51424 25.779 5.63978Z" fill="#1F6636"/>
<path d="M39.5073 17.3362L7.26385 25.9758L14.7343 53.8559L46.9778 45.2162L39.5073 17.3362Z" fill="#FF4026"/>
<path d="M40.5556 9.96265L2.6695 20.1142L4.71263 27.7392L42.5987 17.5877L40.5556 9.96265Z" fill="#FF4026"/>
<mask id="mask0_51_1148" style="mask-type:luminance" maskUnits="userSpaceOnUse" x="7" y="17" width="40" height="37">
<path d="M39.5073 17.3362L7.26385 25.9758L14.7343 53.8559L46.9778 45.2162L39.5073 17.3362Z" fill="white"/>
</mask>
<g mask="url(#mask0_51_1148)">
<path d="M34.2666 19.8207C34.7954 21.7942 36.8054 22.9704 38.7562 22.4477C40.707 21.925 41.8596 19.9013 41.3309 17.9279" fill="#FFADC7"/>
<path d="M27.2021 21.7133C27.7308 23.6868 29.7409 24.8629 31.6917 24.3402C33.6424 23.8175 34.7951 21.7939 34.2663 19.8204" fill="#FFADC7"/>
<path d="M20.1378 23.6061C20.6666 25.5796 22.6766 26.7558 24.6274 26.2331C26.5782 25.7104 27.7308 23.6867 27.2021 21.7133" fill="#FFADC7"/>
<path d="M13.0734 25.4992C13.6022 27.4727 15.6122 28.6488 17.563 28.1261C19.5137 27.6034 20.6664 25.5798 20.1376 23.6063" fill="#FFADC7"/>
<path d="M6.00921 27.3925C6.538 29.366 8.54806 30.5421 10.4988 30.0194C12.4496 29.4967 13.6023 27.4731 13.0735 25.4996" fill="#FFADC7"/>
<path d="M36.206 27.0585C36.7348 29.032 38.7449 30.2082 40.6956 29.6855C42.6464 29.1628 43.7991 27.1391 43.2703 25.1657" fill="#FFADC7"/>
<path d="M29.1415 28.9516C29.6703 30.9251 31.6804 32.1012 33.6311 31.5785C35.5819 31.0558 36.7346 29.0322 36.2058 27.0587" fill="#FFADC7"/>
<path d="M22.0773 30.8442C22.6061 32.8176 24.6161 33.9938 26.5669 33.4711C28.5176 32.9484 29.6703 30.9248 29.1415 28.9513" fill="#FFADC7"/>
<path d="M15.0128 32.7372C15.5416 34.7107 17.5516 35.8869 19.5024 35.3642C21.4532 34.8415 22.6058 32.8178 22.077 30.8444" fill="#FFADC7"/>
<path d="M7.94859 34.6301C8.47738 36.6035 10.4874 37.7797 12.4382 37.257C14.389 36.7343 15.5416 34.7107 15.0129 32.7372" fill="#FFADC7"/>
<path d="M40.085 41.5348C40.6137 43.5083 42.6238 44.6845 44.5746 44.1618C46.5253 43.6391 47.678 41.6154 47.1492 39.642" fill="#FFADC7"/>
<path d="M33.0205 43.4277C33.5493 45.4011 35.5593 46.5773 37.5101 46.0546C39.4608 45.5319 40.6135 43.5083 40.0847 41.5348" fill="#FFADC7"/>
<path d="M25.9562 45.3207C26.485 47.2942 28.4951 48.4704 30.4458 47.9477C32.3966 47.425 33.5493 45.4013 33.0205 43.4279" fill="#FFADC7"/>
<path d="M18.8917 47.2138C19.4206 49.1875 21.4306 50.3634 23.3813 49.8407C25.3321 49.318 26.4848 47.2944 25.956 45.3209" fill="#FFADC7"/>
<path d="M11.8275 49.1064C12.3562 51.0798 14.3663 52.256 16.3171 51.7333C18.2678 51.2106 19.4205 49.187 18.8917 47.2135" fill="#FFADC7"/>
<path d="M38.1455 34.2966C38.6743 36.27 40.6843 37.4462 42.6351 36.9235C44.5859 36.4008 45.7385 34.3772 45.2097 32.4037" fill="#FFADC7"/>
<path d="M31.081 36.1894C31.6098 38.1628 33.6199 39.339 35.5706 38.8163C37.5214 38.2936 38.6741 36.27 38.1453 34.2965" fill="#FFADC7"/>
<path d="M24.0167 38.0825C24.5455 40.0559 26.5556 41.2321 28.5064 40.7094C30.4571 40.1867 31.6098 38.163 31.081 36.1896" fill="#FFADC7"/>
<path d="M16.9523 39.9753C17.481 41.9487 19.4912 43.1251 21.4419 42.6024C23.3927 42.0797 24.5454 40.0561 24.0165 38.0824" fill="#FFADC7"/>
<path d="M9.88799 41.8681C10.4168 43.8416 12.4268 45.0177 14.3776 44.495C16.3284 43.9723 17.481 41.9487 16.9522 39.9752" fill="#FFADC7"/>
</g>
<path d="M25.0905 14.1064L18.184 15.957L27.4276 50.4545L34.3341 48.6039L25.0905 14.1064Z" fill="#1F6636"/>
</svg>
