<svg width="33" height="37" viewBox="0 0 33 37" fill="none" xmlns="http://www.w3.org/2000/svg">
<path d="M16.5001 36.2053C25.6128 36.2053 33.0001 28.7346 33.0001 19.519C33.0001 10.3035 25.6128 2.83276 16.5001 2.83276C7.38741 2.83276 0.000106812 10.3035 0.000106812 19.519C0.000106812 28.7346 7.38741 36.2053 16.5001 36.2053Z" fill="#FF4026"/>
<path d="M22.7692 6.79053C22.3015 6.79053 21.9221 7.174 21.9221 7.64722C21.9221 8.12025 22.3013 8.5039 22.7692 8.5039C23.237 8.5039 23.6163 8.12044 23.6163 7.64722C23.6163 7.17419 23.237 6.79053 22.7692 6.79053Z" fill="white"/>
<path d="M16.5 6.79028C16.032 6.79028 15.6528 7.17375 15.6528 7.64697C15.6528 8.12 16.032 8.50365 16.5 8.50365C16.9677 8.50365 17.3471 8.12019 17.3471 7.64697C17.3471 7.17394 16.9679 6.79028 16.5 6.79028Z" fill="white"/>
<path d="M10.2307 6.79053C9.76299 6.79053 9.38362 7.174 9.38362 7.64722C9.38362 8.12025 9.7628 8.5039 10.2307 8.5039C10.6985 8.5039 11.0779 8.12044 11.0779 7.64722C11.0779 7.17419 10.6987 6.79053 10.2307 6.79053Z" fill="white"/>
<path d="M22.7693 32.2351C23.2372 32.2351 23.6164 31.8515 23.6164 31.3784C23.6164 30.9053 23.2372 30.5217 22.7693 30.5217C22.3015 30.5217 21.9222 30.9053 21.9222 31.3784C21.9222 31.8515 22.3015 32.2351 22.7693 32.2351Z" fill="white"/>
<path d="M16.5 32.2351C16.9679 32.2351 17.3472 31.8515 17.3472 31.3784C17.3472 30.9053 16.9679 30.5217 16.5 30.5217C16.0322 30.5217 15.6529 30.9053 15.6529 31.3784C15.6529 31.8515 16.0322 32.2351 16.5 32.2351Z" fill="white"/>
<path d="M10.2308 32.2351C10.6987 32.2351 11.0779 31.8515 11.0779 31.3784C11.0779 30.9053 10.6987 30.5217 10.2308 30.5217C9.76297 30.5217 9.3837 30.9053 9.3837 31.3784C9.3837 31.8515 9.76297 32.2351 10.2308 32.2351Z" fill="white"/>
<path d="M20.7381 0L12.262 0V3.3494L20.7381 3.3494V0Z" fill="#FFADC7"/>
<mask id="mask0_51_1277" style="mask-type:luminance" maskUnits="userSpaceOnUse" x="0" y="2" width="34" height="35">
<path d="M16.5001 36.2053C25.6128 36.2053 33.0001 28.7346 33.0001 19.519C33.0001 10.3035 25.6128 2.83276 16.5001 2.83276C7.38741 2.83276 0.000106812 10.3035 0.000106812 19.519C0.000106812 28.7346 7.38741 36.2053 16.5001 36.2053Z" fill="white"/>
</mask>
<g mask="url(#mask0_51_1277)">
<path d="M1.85946 20.6431C0.639384 22.8929 -0.580691 25.1429 -1.80077 27.3927H5.5195C4.29942 25.1429 3.07953 22.8931 1.85946 20.6431Z" fill="#1F6636"/>
<path d="M9.17974 20.6431C7.95967 22.8929 6.73959 25.1429 5.51952 27.3927H12.8398C11.6197 25.1429 10.3998 22.8931 9.17974 20.6431Z" fill="#1F6636"/>
<path d="M16.5 20.6431C15.2801 22.8929 14.0598 25.1429 12.8398 27.3927H20.16C18.9401 25.1429 17.7201 22.8931 16.5 20.6431Z" fill="#1F6636"/>
<path d="M23.8204 20.6431C22.6004 22.8929 21.3803 25.1429 20.1602 27.3927H27.4805C26.2604 25.1429 25.0403 22.8931 23.8204 20.6431Z" fill="#1F6636"/>
<path d="M31.1407 20.6431C29.9206 22.8929 28.7006 25.1429 27.4805 27.3927H34.8007C33.5807 25.1429 32.3608 22.8931 31.1407 20.6431Z" fill="#1F6636"/>
</g>
</svg>
