<svg width="402" height="874" viewBox="0 0 402 874" fill="none" xmlns="http://www.w3.org/2000/svg">
<g clip-path="url(#clip0_411_1675)">
<rect width="402" height="874" fill="#3C9155"/>
<path d="M65.9216 755.886L74.8111 762.057L8.7598 845.16C3.87112 851.311 -6.5873 851.816 -14.5531 846.287C-22.5189 840.757 -25.0228 831.254 -20.1338 825.103L-12.5885 815.61L-3.69903 821.781L-11.2444 831.274C-13.1249 833.64 -12.1619 837.296 -9.09759 839.423C-6.03331 841.55 -2.01053 841.356 -0.129657 838.989L65.9216 755.886Z" fill="#FF4026"/>
<mask id="mask0_411_1675" style="mask-type:luminance" maskUnits="userSpaceOnUse" x="-23" y="755" width="98" height="96">
<path d="M-14.5531 846.287C-6.5873 851.816 3.87081 851.311 8.7598 845.16L74.8111 762.057L65.9216 755.886L-0.129657 838.989C-2.01023 841.355 -6.03331 841.55 -9.09759 839.423C-12.1619 837.296 -13.1252 833.64 -11.2444 831.274L-3.69903 821.781L-12.5885 815.61L-20.1338 825.103C-25.0225 831.254 -22.5189 840.757 -14.5531 846.287Z" fill="white"/>
</mask>
<g mask="url(#mask0_411_1675)">
<path d="M78.6932 758.371L68.9302 751.594L67.2183 753.748L76.9813 760.525L78.6932 758.371Z" fill="white"/>
<path d="M-14.8584 846.671C-16.8364 845.298 -18.5293 843.667 -19.89 841.823L-10.6312 837.435C-9.98265 838.313 -9.08043 839.078 -8.0798 839.615L-12.6298 848.037C-13.3938 847.626 -14.1436 847.167 -14.8584 846.671ZM-3.42543 850.649L-4.85095 840.529C-3.74305 840.585 -2.69417 840.379 -1.81714 839.933L5.16111 848.956C2.67062 850.223 -0.298385 850.808 -3.42543 850.649ZM-23.1957 833.749C-23.5108 830.963 -22.9769 828.287 -21.6513 826.012L-11.2589 831.869C-11.7214 832.663 -11.9078 833.6 -11.797 834.578L-23.1957 833.749ZM10.4949 844.176L0.731372 837.399L4.05563 833.217L13.8192 839.994L10.4949 844.176ZM-8.32035 828.102L-18.0834 821.324L-14.7591 817.142L-4.99609 823.919L-8.32035 828.102ZM17.1434 835.812L7.37989 829.034L10.7041 824.852L20.4677 831.629L17.1434 835.812ZM23.7922 827.446L14.0287 820.669L17.353 816.486L27.1165 823.264L23.7922 827.446ZM30.4407 819.081L20.6772 812.304L24.0015 808.121L33.765 814.899L30.4407 819.081ZM37.0896 810.716L27.326 803.939L30.6503 799.756L40.4138 806.534L37.0896 810.716ZM43.7384 802.351L33.9748 795.573L37.2991 791.391L47.0626 798.168L43.7384 802.351ZM50.3869 793.986L40.6233 787.208L43.9476 783.026L53.7111 789.804L50.3869 793.986ZM57.0357 785.621L47.2722 778.843L50.5964 774.661L60.36 781.438L57.0357 785.621ZM63.6845 777.255L53.921 770.478L57.2452 766.295L67.0088 773.073L63.6845 777.255ZM70.333 768.891L60.5695 762.113L63.8938 757.931L73.6573 764.708L70.333 768.891Z" fill="white"/>
<path d="M0.0525844 817.567L-9.71045 810.79L-11.4224 812.943L-1.65932 819.721L0.0525844 817.567Z" fill="white"/>
</g>
<path d="M60.612 882.634C83.475 888.359 107.031 875.484 113.227 853.876C119.422 832.268 105.91 810.11 83.0471 804.385C60.1841 798.66 36.6276 811.536 30.4323 833.143C24.237 854.751 37.7489 876.909 60.612 882.634Z" fill="#FF4026"/>
<path d="M96.1151 817.604C94.9416 817.31 93.732 817.97 93.4138 819.08C93.0958 820.189 93.7893 821.327 94.9633 821.621C96.1368 821.915 97.3464 821.254 97.6646 820.144C97.9826 819.035 97.2887 817.897 96.1151 817.604Z" fill="white"/>
<path d="M80.3861 813.664C79.2121 813.37 78.0029 814.031 77.6848 815.141C77.3668 816.25 78.0602 817.388 79.2343 817.682C80.4078 817.975 81.6174 817.315 81.9355 816.205C82.2535 815.096 81.5601 813.958 80.3861 813.664Z" fill="white"/>
<path d="M64.6571 809.726C63.4836 809.432 62.2739 810.092 61.9558 811.202C61.6378 812.311 62.3312 813.449 63.5053 813.743C64.6788 814.037 65.8884 813.376 66.2066 812.266C66.5246 811.157 65.8311 810.02 64.6571 809.726Z" fill="white"/>
<path d="M79.0097 877.263C80.1835 877.557 81.3929 876.896 81.711 875.787C82.029 874.677 81.3353 873.54 80.1615 873.246C78.9877 872.952 77.7783 873.613 77.4602 874.722C77.1421 875.832 77.8359 876.969 79.0097 877.263Z" fill="white"/>
<path d="M63.2807 873.325C64.4545 873.619 65.6639 872.958 65.9819 871.848C66.3 870.739 65.6063 869.601 64.4325 869.307C63.2587 869.013 62.0493 869.674 61.7312 870.784C61.4131 871.893 62.1068 873.031 63.2807 873.325Z" fill="white"/>
<path d="M47.5517 869.386C48.7255 869.68 49.9349 869.019 50.2529 867.909C50.571 866.8 49.8773 865.662 48.7035 865.368C47.5297 865.074 46.3203 865.735 46.0022 866.845C45.6841 867.954 46.3778 869.092 47.5517 869.386Z" fill="white"/>
<path d="M95.5843 800.406L74.3184 795.081L72.0667 802.934L93.3326 808.259L95.5843 800.406Z" fill="#FFADC7"/>
<mask id="mask1_411_1675" style="mask-type:luminance" maskUnits="userSpaceOnUse" x="28" y="803" width="87" height="81">
<path d="M60.612 882.634C83.475 888.359 107.031 875.484 113.227 853.876C119.422 832.268 105.91 810.11 83.0471 804.385C60.1841 798.66 36.6276 811.536 30.4323 833.143C24.237 854.751 37.7489 876.909 60.612 882.634Z" fill="white"/>
</mask>
<g mask="url(#mask1_411_1675)">
<path d="M34.3414 836.947C29.7679 841.455 25.1942 845.964 20.6207 850.473L38.9867 855.072C37.4381 849.03 35.8899 842.989 34.3414 836.947Z" fill="#1F6636"/>
<path d="M52.7076 841.545C48.1341 846.054 43.5604 850.563 38.9869 855.072L57.3529 859.671C55.8043 853.629 54.2561 847.588 52.7076 841.545Z" fill="#1F6636"/>
<path d="M71.0734 846.145C66.5003 850.653 61.9262 855.162 57.3526 859.671L75.7186 864.27C74.1705 858.228 72.6218 852.187 71.0734 846.145Z" fill="#1F6636"/>
<path d="M89.4401 850.744C84.8665 855.252 80.2929 859.761 75.7193 864.27L94.0853 868.869C92.5367 862.827 90.9881 856.786 89.4401 850.744Z" fill="#1F6636"/>
<path d="M107.806 855.343C103.233 859.851 98.6591 864.36 94.0855 868.869L112.452 873.468C110.903 867.426 109.355 861.385 107.806 855.343Z" fill="#1F6636"/>
</g>
<path d="M33.0469 879.612C47.1738 876.074 55.5227 862.383 51.6947 849.032C47.8667 835.681 33.3113 827.725 19.1844 831.263C5.05757 834.8 -3.29131 848.491 0.536717 861.843C4.36474 875.194 18.9201 883.149 33.0469 879.612Z" fill="white"/>
<path d="M30.5471 834.563C29.822 834.744 29.3932 835.447 29.5897 836.133C29.7862 836.818 30.5334 837.227 31.2588 837.045C31.984 836.863 32.4128 836.161 32.2162 835.475C32.0198 834.79 31.2723 834.381 30.5471 834.563Z" fill="#FF8FAA"/>
<path d="M20.8284 836.996C20.103 837.178 19.6744 837.881 19.871 838.566C20.0675 839.252 20.8147 839.66 21.5401 839.479C22.2652 839.297 22.694 838.594 22.4975 837.909C22.301 837.223 21.5538 836.815 20.8284 836.996Z" fill="#FF8FAA"/>
<path d="M11.1096 839.43C10.3845 839.612 9.95567 840.315 10.1522 841C10.3487 841.686 11.0959 842.094 11.8213 841.913C12.5465 841.731 12.9753 841.028 12.7787 840.343C12.5822 839.657 11.835 839.249 11.1096 839.43Z" fill="#FF8FAA"/>
<path d="M41.1168 871.427C41.842 871.245 42.2707 870.542 42.0742 869.857C41.8776 869.171 41.1303 868.763 40.405 868.944C39.6798 869.126 39.2511 869.829 39.4476 870.514C39.6442 871.2 40.3915 871.608 41.1168 871.427Z" fill="#FF8FAA"/>
<path d="M31.398 873.86C32.1233 873.679 32.5519 872.976 32.3554 872.29C32.1588 871.605 31.4116 871.196 30.6863 871.378C29.961 871.56 29.5324 872.262 29.7289 872.948C29.9254 873.633 30.6727 874.042 31.398 873.86Z" fill="#FF8FAA"/>
<path d="M21.6792 876.294C22.4045 876.112 22.8332 875.409 22.6366 874.724C22.4401 874.038 21.6928 873.63 20.9675 873.812C20.2423 873.993 19.8136 874.696 20.0101 875.382C20.2067 876.067 20.954 876.475 21.6792 876.294Z" fill="#FF8FAA"/>
<path d="M24.578 825.514L11.438 828.804L12.8293 833.657L25.9693 830.366L24.578 825.514Z" fill="#EB1111"/>
<mask id="mask2_411_1675" style="mask-type:luminance" maskUnits="userSpaceOnUse" x="-1" y="830" width="54" height="51">
<path d="M33.0469 879.612C47.1738 876.074 55.5227 862.383 51.6947 849.032C47.8667 835.681 33.3113 827.725 19.1844 831.263C5.05757 834.8 -3.29131 848.491 0.536716 861.843C4.36474 875.194 18.9201 883.149 33.0469 879.612Z" fill="white"/>
</mask>
<g mask="url(#mask2_411_1675)">
<path d="M3.88663 862.75C2.92976 866.483 1.97297 870.216 1.01609 873.949L12.3643 871.108C9.53832 868.322 6.71266 865.536 3.88663 862.75Z" fill="#1F6636"/>
<path d="M15.2348 859.908C14.2779 863.641 13.3211 867.374 12.3642 871.107L23.7124 868.266C20.8865 865.48 18.0608 862.694 15.2348 859.908Z" fill="#1F6636"/>
<path d="M26.5829 857.066C25.6263 860.799 24.6693 864.533 23.7124 868.266L35.0606 865.424C32.2349 862.638 29.4089 859.852 26.5829 857.066Z" fill="#1F6636"/>
<path d="M37.9316 854.224C36.9747 857.957 36.0179 861.691 35.061 865.424L46.4092 862.582C43.5832 859.796 40.7573 857.011 37.9316 854.224Z" fill="#1F6636"/>
<path d="M49.2797 851.383C48.3228 855.116 47.366 858.849 46.4092 862.582L57.7573 859.741C54.9314 856.955 52.1057 854.169 49.2797 851.383Z" fill="#1F6636"/>
</g>
</g>
<defs>
<clipPath id="clip0_411_1675">
<rect width="402" height="874" fill="white"/>
</clipPath>
</defs>
</svg>
