<svg width="94" height="193" viewBox="0 0 94 193" fill="none" xmlns="http://www.w3.org/2000/svg">
<path d="M0 55.76V38.5966C21.079 38.5966 38.228 21.2827 38.228 0H55.228C55.228 30.7468 30.453 55.76 0 55.76Z" fill="#1F6636"/>
<path d="M93.457 55.76C63.004 55.76 38.228 30.7468 38.228 0H55.228C55.228 21.2827 72.377 38.5966 93.457 38.5966V55.76Z" fill="#1F6636"/>
<path d="M0 92.907V75.7436C21.079 75.7436 38.228 58.4297 38.228 37.147H55.228C55.228 67.8938 30.453 92.907 0 92.907Z" fill="#1F6636"/>
<path d="M93.457 92.907C63.004 92.907 38.228 67.8938 38.228 37.147H55.228C55.228 58.4287 72.377 75.7436 93.457 75.7436V92.907Z" fill="#1F6636"/>
<path d="M0 130.054V112.891C21.079 112.891 38.228 95.5771 38.228 74.2944H55.228C55.228 105.041 30.453 130.054 0 130.054Z" fill="#1F6636"/>
<path d="M93.457 130.054C63.004 130.054 38.228 105.041 38.228 74.2944H55.228C55.228 95.5761 72.377 112.891 93.457 112.891V130.054Z" fill="#1F6636"/>
<path d="M55.228 10.4082H38.228V159.304H55.228V10.4082Z" fill="#1F6636"/>
<path d="M74.437 192.813H19.02L10.28 141.275H83.177L74.437 192.813Z" fill="#FFADC7"/>
<mask id="mask0_51_269" style="mask-type:luminance" maskUnits="userSpaceOnUse" x="10" y="141" width="74" height="52">
<path d="M74.437 192.813H19.02L10.28 141.275H83.177L74.437 192.813Z" fill="white"/>
</mask>
<g mask="url(#mask0_51_269)">
<path d="M12.6171 172.37L1.24609 141.275H23.9871L12.6171 172.37Z" fill="#FF4026"/>
<path d="M35.3581 172.37L23.9871 141.275H46.7281L35.3581 172.37Z" fill="#FF4026"/>
<path d="M58.099 172.37L46.728 141.275H69.47L58.099 172.37Z" fill="#FF4026"/>
<path d="M80.8401 172.37L69.4701 141.275H92.2111L80.8401 172.37Z" fill="#FF4026"/>
</g>
<path d="M40.8523 125.787C42.1637 120.151 38.7014 114.509 33.119 113.185C27.5366 111.861 21.948 115.356 20.6366 120.992C19.3251 126.628 22.7874 132.271 28.3698 133.595C33.9522 134.919 39.5408 131.423 40.8523 125.787Z" fill="#FFADC7"/>
<path d="M72.8003 125.787C74.1117 120.151 70.6494 114.509 65.067 113.185C59.4846 111.861 53.896 115.356 52.5846 120.992C51.2731 126.628 54.7354 132.271 60.3178 133.595C65.9002 134.919 71.4888 131.423 72.8003 125.787Z" fill="#FF4026"/>
<path d="M38.0921 92.7034C42.1469 88.6097 42.1469 81.9724 38.0921 77.8786C34.0373 73.7848 27.4632 73.7848 23.4085 77.8786C19.3537 81.9724 19.3537 88.6097 23.4085 92.7034C27.4632 96.7972 34.0373 96.7972 38.0921 92.7034Z" fill="#FF4026"/>
<path d="M70.041 92.7039C74.0957 88.6101 74.0957 81.9728 70.041 77.8791C65.9862 73.7853 59.4121 73.7853 55.3573 77.8791C51.3026 81.9728 51.3025 88.6102 55.3573 92.7039C59.4121 96.7977 65.9862 96.7977 70.041 92.7039Z" fill="#FFADC7"/>
<path d="M40.8514 49.5659C42.1629 43.9298 38.7005 38.2875 33.1181 36.9634C27.5357 35.6394 21.9472 39.1349 20.6357 44.771C19.3242 50.4071 22.7865 56.0494 28.369 57.3735C33.9514 58.6976 39.54 55.202 40.8514 49.5659Z" fill="#FFADC7"/>
<path d="M72.7994 49.5659C74.1109 43.9298 70.6486 38.2875 65.0661 36.9634C59.4837 35.6393 53.8952 39.1349 52.5837 44.771C51.2723 50.4071 54.7345 56.0494 60.317 57.3735C65.8994 58.6976 71.488 55.2019 72.7994 49.5659Z" fill="#FF4026"/>
</svg>
