<svg width="402" height="874" viewBox="0 0 402 874" fill="none" xmlns="http://www.w3.org/2000/svg">
<rect width="402" height="874" fill="#3C9155"/>
<path d="M120.487 113.192L102.83 97.1496L85.172 113.191L67.512 97.1496L51.014 112.136L47 107.633L67.512 89L85.172 105.043L102.83 89L120.487 105.042L138.137 89L157.799 106.866L153.785 111.369L138.137 97.1496L120.487 113.192Z" fill="white"/>
<path d="M317.487 784.192L299.83 768.15L282.172 784.191L264.512 768.15L248.014 783.136L244 778.633L264.512 760L282.172 776.043L299.83 760L317.487 776.042L335.137 760L354.799 777.866L350.785 782.369L335.137 768.15L317.487 784.192Z" fill="white"/>
<path d="M296.661 97C294.639 97 293 98.6548 293 100.696C293 102.738 294.639 104.392 296.661 104.392C298.683 104.392 300.322 102.738 300.322 100.696C300.322 98.6548 298.683 97 296.661 97Z" fill="white"/>
<path d="M325.661 97C323.639 97 322 98.6548 322 100.696C322 102.738 323.639 104.392 325.661 104.392C327.683 104.392 329.322 102.738 329.322 100.696C329.322 98.6548 327.683 97 325.661 97Z" fill="white"/>
<path d="M354.661 97C352.639 97 351 98.6548 351 100.696C351 102.738 352.639 104.392 354.661 104.392C356.683 104.392 358.322 102.738 358.322 100.696C358.322 98.6548 356.683 97 354.661 97Z" fill="white"/>
<path d="M91.5887 726.321L96.5667 730.018L51.2616 791.012C47.9084 795.526 41.551 796.503 37.0901 793.19C32.6293 789.877 31.728 783.508 35.0814 778.994L40.2568 772.026L45.2348 775.724L40.0594 782.691C38.7695 784.428 39.1162 786.878 40.8321 788.152C42.5481 789.427 44.9935 789.051 46.2836 787.314L91.5887 726.321Z" fill="#FF4026"/>
<mask id="mask0_377_2240" style="mask-type:luminance" maskUnits="userSpaceOnUse" x="33" y="726" width="64" height="70">
<path d="M37.0901 793.19C41.551 796.503 47.9082 795.527 51.2616 791.012L96.5667 730.018L91.5887 726.321L46.2836 787.314C44.9937 789.051 42.5481 789.427 40.8321 788.152C39.1162 786.878 38.7693 784.428 40.0594 782.691L45.2348 775.724L40.2568 772.026L35.0814 778.994C31.7282 783.508 32.6293 789.877 37.0901 793.19Z" fill="white"/>
</mask>
<g mask="url(#mask0_377_2240)">
<path d="M99.1523 727.256L93.6851 723.195L92.5109 724.776L97.9781 728.837L99.1523 727.256Z" fill="white"/>
<path d="M36.8805 793.472C35.7729 792.649 34.8543 791.633 34.1503 790.45L40.0327 786.881C40.3683 787.444 40.8646 787.915 41.4351 788.223L38.1402 794.275C37.7047 794.039 37.2809 793.77 36.8805 793.472ZM43.5382 795.512L43.3289 788.655C43.9952 788.627 44.6429 788.422 45.202 788.064L48.8403 793.833C47.2524 794.852 45.4191 795.433 43.5382 795.512ZM32.6719 785.109C32.661 783.217 33.1564 781.35 34.1048 779.709L40.012 783.101C39.6811 783.673 39.508 784.327 39.5119 784.991L32.6719 785.109ZM52.3742 790.233L46.9067 786.172L49.1868 783.102L54.6544 787.163L52.3742 790.233ZM42.0322 780.339L36.5649 776.278L38.8451 773.208L44.3123 777.269L42.0322 780.339ZM56.9345 784.093L51.467 780.032L53.7471 776.962L59.2146 781.024L56.9345 784.093ZM61.495 777.954L56.0274 773.892L58.3076 770.823L63.7751 774.884L61.495 777.954ZM66.0552 771.814L60.5877 767.753L62.8678 764.683L68.3354 768.745L66.0552 771.814ZM70.6157 765.675L65.1482 761.613L67.4283 758.544L72.8958 762.605L70.6157 765.675ZM75.1762 759.535L69.7087 755.474L71.9888 752.404L77.4563 756.465L75.1762 759.535ZM79.7365 753.395L74.2689 749.334L76.5491 746.265L82.0166 750.326L79.7365 753.395ZM84.2969 747.256L78.8294 743.195L81.1095 740.125L86.5771 744.186L84.2969 747.256ZM88.8574 741.116L83.3899 737.055L85.67 733.985L91.1375 738.046L88.8574 741.116ZM93.4177 734.977L87.9502 730.915L90.2303 727.846L95.6978 731.907L93.4177 734.977Z" fill="white"/>
<path d="M47.7753 772.607L42.3081 768.546L41.1339 770.126L46.6011 774.187L47.7753 772.607Z" fill="white"/>
</g>
<path d="M93.1821 795.08C105.985 798.51 119.177 790.795 122.646 777.847C126.115 764.9 118.549 751.622 105.746 748.192C92.9425 744.761 79.751 752.476 76.2817 765.424C72.8124 778.372 80.3789 791.649 93.1821 795.08Z" fill="#FF4026"/>
<path d="M113.063 756.112C112.406 755.936 111.729 756.332 111.551 756.997C111.373 757.662 111.761 758.343 112.418 758.52C113.076 758.696 113.753 758.3 113.931 757.635C114.109 756.97 113.721 756.288 113.063 756.112Z" fill="white"/>
<path d="M104.255 753.752C103.598 753.576 102.921 753.972 102.743 754.636C102.565 755.301 102.953 755.983 103.61 756.159C104.268 756.335 104.945 755.939 105.123 755.274C105.301 754.61 104.913 753.928 104.255 753.752Z" fill="white"/>
<path d="M95.4473 751.392C94.7901 751.216 94.1127 751.612 93.9346 752.277C93.7565 752.941 94.1448 753.623 94.8022 753.799C95.4594 753.975 96.1368 753.579 96.315 752.914C96.493 752.25 96.1047 751.568 95.4473 751.392Z" fill="white"/>
<path d="M103.485 791.861C104.142 792.038 104.819 791.641 104.997 790.977C105.175 790.312 104.787 789.63 104.13 789.454C103.472 789.278 102.795 789.674 102.617 790.339C102.439 791.004 102.827 791.685 103.485 791.861Z" fill="white"/>
<path d="M94.6765 789.501C95.3338 789.677 96.0111 789.281 96.1892 788.617C96.3673 787.952 95.9789 787.27 95.3215 787.094C94.6642 786.918 93.987 787.314 93.8088 787.979C93.6307 788.644 94.0192 789.325 94.6765 789.501Z" fill="white"/>
<path d="M85.8684 787.141C86.5257 787.317 87.203 786.921 87.3811 786.256C87.5592 785.592 87.1708 784.91 86.5134 784.734C85.8561 784.558 85.1789 784.954 85.0007 785.619C84.8226 786.283 85.2111 786.965 85.8684 787.141Z" fill="white"/>
<path d="M112.766 745.807L100.857 742.616L99.5965 747.322L111.505 750.513L112.766 745.807Z" fill="#FFADC7"/>
<mask id="mask1_377_2240" style="mask-type:luminance" maskUnits="userSpaceOnUse" x="75" y="747" width="49" height="49">
<path d="M93.1821 795.08C105.985 798.51 119.177 790.795 122.646 777.847C126.115 764.9 118.549 751.622 105.746 748.192C92.9425 744.761 79.751 752.476 76.2817 765.424C72.8124 778.372 80.3789 791.649 93.1821 795.08Z" fill="white"/>
</mask>
<g mask="url(#mask1_377_2240)">
<path d="M78.4709 767.703C75.9098 770.405 73.3485 773.107 70.7874 775.808L81.0722 778.564C80.205 774.944 79.3381 771.324 78.4709 767.703Z" fill="#1F6636"/>
<path d="M88.7558 770.459C86.1947 773.16 83.6335 775.862 81.0723 778.564L91.3571 781.32C90.4899 777.699 89.623 774.079 88.7558 770.459Z" fill="#1F6636"/>
<path d="M99.0405 773.215C96.4796 775.916 93.9181 778.618 91.357 781.32L101.642 784.076C100.775 780.455 99.9076 776.835 99.0405 773.215Z" fill="#1F6636"/>
<path d="M109.326 775.97C106.765 778.672 104.203 781.374 101.642 784.076L111.927 786.831C111.06 783.211 110.193 779.591 109.326 775.97Z" fill="#1F6636"/>
<path d="M119.611 778.726C117.049 781.428 114.488 784.13 111.927 786.831L122.212 789.587C121.345 785.967 120.478 782.347 119.611 778.726Z" fill="#1F6636"/>
</g>
<path d="M77.7459 793.269C85.6569 791.149 90.3322 782.945 88.1886 774.945C86.0449 766.945 77.894 762.177 69.983 764.297C62.072 766.417 57.3967 774.621 59.5404 782.621C61.6841 790.621 69.835 795.388 77.7459 793.269Z" fill="white"/>
<path d="M76.3463 766.275C75.9402 766.383 75.7 766.805 75.8101 767.215C75.9202 767.626 76.3386 767.871 76.7448 767.762C77.1509 767.653 77.391 767.232 77.2809 766.821C77.1709 766.411 76.7523 766.166 76.3463 766.275Z" fill="#FF8FAA"/>
<path d="M70.9036 767.733C70.4974 767.842 70.2574 768.263 70.3675 768.674C70.4775 769.084 70.8959 769.329 71.3022 769.22C71.7082 769.111 71.9484 768.69 71.8383 768.28C71.7283 767.869 71.3098 767.624 70.9036 767.733Z" fill="#FF8FAA"/>
<path d="M65.4612 769.191C65.0552 769.3 64.815 769.721 64.9251 770.132C65.0351 770.543 65.4536 770.788 65.8598 770.679C66.2659 770.57 66.506 770.149 66.3959 769.738C66.2859 769.327 65.8675 769.083 65.4612 769.191Z" fill="#FF8FAA"/>
<path d="M82.2651 788.364C82.6712 788.255 82.9113 787.834 82.8012 787.423C82.6911 787.013 82.2727 786.768 81.8665 786.877C81.4604 786.986 81.2203 787.407 81.3304 787.817C81.4404 788.228 81.8589 788.473 82.2651 788.364Z" fill="#FF8FAA"/>
<path d="M76.8224 789.822C77.2286 789.714 77.4686 789.292 77.3586 788.882C77.2485 788.471 76.83 788.226 76.4239 788.335C76.0177 788.444 75.7777 788.865 75.8878 789.276C75.9978 789.686 76.4163 789.931 76.8224 789.822Z" fill="#FF8FAA"/>
<path d="M71.3801 791.281C71.7862 791.172 72.0262 790.751 71.9162 790.34C71.8061 789.929 71.3877 789.684 70.9815 789.793C70.5753 789.902 70.3353 790.323 70.4454 790.734C70.5554 791.145 70.9739 791.389 71.3801 791.281Z" fill="#FF8FAA"/>
<path d="M73.0034 760.852L65.645 762.824L66.4241 765.732L73.7825 763.76L73.0034 760.852Z" fill="#EB1111"/>
<mask id="mask2_377_2240" style="mask-type:luminance" maskUnits="userSpaceOnUse" x="59" y="763" width="30" height="31">
<path d="M77.7459 793.269C85.6569 791.149 90.3322 782.945 88.1886 774.945C86.0449 766.945 77.894 762.177 69.983 764.297C62.072 766.417 57.3967 774.621 59.5404 782.621C61.6841 790.621 69.835 795.388 77.7459 793.269Z" fill="white"/>
</mask>
<g mask="url(#mask2_377_2240)">
<path d="M61.4163 783.165C60.8805 785.402 60.3447 787.639 59.8088 789.876L66.1637 788.173C64.5812 786.504 62.9989 784.834 61.4163 783.165Z" fill="#1F6636"/>
<path d="M67.771 781.462C67.2352 783.699 66.6994 785.936 66.1636 788.173L72.5185 786.47C70.9359 784.801 69.3536 783.131 67.771 781.462Z" fill="#1F6636"/>
<path d="M74.126 779.759C73.5903 781.996 73.0544 784.233 72.5185 786.47L78.8734 784.767C77.2911 783.098 75.7086 781.428 74.126 779.759Z" fill="#1F6636"/>
<path d="M80.4813 778.056C79.9454 780.293 79.4096 782.53 78.8738 784.767L85.2287 783.064C83.6462 781.395 82.0636 779.726 80.4813 778.056Z" fill="#1F6636"/>
<path d="M86.836 776.353C86.3001 778.59 85.7643 780.827 85.2285 783.064L91.5834 781.362C90.0009 779.692 88.4185 778.023 86.836 776.353Z" fill="#1F6636"/>
</g>
</svg>
