<svg width="184" height="186" viewBox="0 0 184 186" fill="none" xmlns="http://www.w3.org/2000/svg">
<path d="M99.2418 178.134C145.91 174.022 180.441 132.479 176.37 85.3447C172.3 38.2101 131.168 3.3331 84.4997 7.44472C37.8318 11.5563 3.30012 53.0996 7.37103 100.234C11.4419 147.369 52.5739 182.246 99.2418 178.134Z" fill="#FF4026"/>
<path d="M91.8814 149.153C122.708 149.153 147.698 123.912 147.698 92.7773C147.698 61.6422 122.708 36.4022 91.8814 36.4022C61.0545 36.4022 36.0644 61.6422 36.0644 92.7773C36.0644 123.912 61.0545 149.153 91.8814 149.153Z" fill="#FFADC7"/>
<path d="M30.9354 101.089L19.1624 90.3907L8.4104 100.16L5.2424 96.6042L19.1624 83.954L30.9354 94.6529L42.7054 83.954L56.0594 96.0922L52.8914 99.6484L42.7054 90.3907L30.9354 101.089Z" fill="white"/>
<path d="M153.162 101.089L141.391 90.3907L130.639 100.16L127.471 96.6042L141.391 83.954L153.162 94.6529L164.934 83.954L178.287 96.0922L175.119 99.6484L164.934 90.3907L153.162 101.089Z" fill="white"/>
<path d="M91.8814 133.739C114.28 133.739 132.437 115.4 132.437 92.7774C132.437 70.1549 114.28 51.8158 91.8814 51.8158C69.4829 51.8158 51.3254 70.1549 51.3254 92.7774C51.3254 115.4 69.4829 133.739 91.8814 133.739Z" fill="#FF4026"/>
<mask id="mask0_52_239" style="mask-type:luminance" maskUnits="userSpaceOnUse" x="51" y="51" width="82" height="83">
<path d="M91.8814 133.739C114.28 133.739 132.437 115.4 132.437 92.7774C132.437 70.1549 114.28 51.8158 91.8814 51.8158C69.4829 51.8158 51.3254 70.1549 51.3254 92.7774C51.3254 115.4 69.4829 133.739 91.8814 133.739Z" fill="white"/>
</mask>
<g mask="url(#mask0_52_239)">
<path d="M55.8954 74.1105C52.8964 79.6332 49.8974 85.1569 46.8984 90.6796H64.8914C61.8934 85.1569 58.8944 79.6332 55.8954 74.1105Z" fill="white"/>
<path d="M73.8884 74.1105C70.8894 79.6332 67.8904 85.1569 64.8914 90.6796H82.8844C79.8864 85.1569 76.8874 79.6332 73.8884 74.1105Z" fill="#1F6636"/>
<path d="M91.8814 74.1105C88.8824 79.6332 85.8834 85.1569 82.8844 90.6796H100.877C97.8794 85.1569 94.8804 79.6332 91.8814 74.1105Z" fill="white"/>
<path d="M109.875 74.1105C106.876 79.6332 103.877 85.1569 100.878 90.6796H118.871C115.872 85.1569 112.873 79.6332 109.875 74.1105Z" fill="#1F6636"/>
<path d="M127.868 74.1105C124.869 79.6332 121.87 85.1569 118.871 90.6796H136.864C133.865 85.1569 130.866 79.6332 127.868 74.1105Z" fill="white"/>
<path d="M55.8954 95.5387C52.8964 101.061 49.8974 106.585 46.8984 112.108H64.8914C61.8934 106.584 58.8944 101.061 55.8954 95.5387Z" fill="#1F6636"/>
<path d="M73.8884 95.5387C70.8894 101.061 67.8904 106.585 64.8914 112.108H82.8844C79.8864 106.584 76.8874 101.061 73.8884 95.5387Z" fill="white"/>
<path d="M91.8814 95.5387C88.8824 101.061 85.8834 106.585 82.8844 112.108H100.877C97.8794 106.584 94.8804 101.061 91.8814 95.5387Z" fill="#1F6636"/>
<path d="M109.875 95.5387C106.876 101.061 103.877 106.585 100.878 112.108H118.871C115.872 106.584 112.873 101.061 109.875 95.5387Z" fill="white"/>
<path d="M127.868 95.5387C124.869 101.061 121.87 106.585 118.871 112.108H136.864C133.865 106.584 130.866 101.061 127.868 95.5387Z" fill="#1F6636"/>
</g>
<path d="M112.676 116.215C111.124 116.215 109.866 117.486 109.866 119.053C109.866 120.621 111.124 121.892 112.676 121.892C114.228 121.892 115.486 120.621 115.486 119.053C115.486 117.486 114.228 116.215 112.676 116.215Z" fill="white"/>
<path d="M91.8814 116.215C90.3294 116.215 89.0714 117.486 89.0714 119.053C89.0714 120.621 90.3294 121.892 91.8814 121.892C93.4334 121.892 94.6914 120.621 94.6914 119.053C94.6914 117.486 93.4334 116.215 91.8814 116.215Z" fill="white"/>
<path d="M71.0864 116.215C69.5344 116.215 68.2764 117.486 68.2764 119.053C68.2764 120.621 69.5344 121.892 71.0864 121.892C72.6384 121.892 73.8964 120.621 73.8964 119.053C73.8964 117.486 72.6384 116.215 71.0864 116.215Z" fill="white"/>
<path d="M112.676 62.8995C111.124 62.8995 109.866 64.1701 109.866 65.7376C109.866 67.3052 111.124 68.5757 112.676 68.5757C114.228 68.5757 115.486 67.3052 115.486 65.7376C115.486 64.1701 114.228 62.8995 112.676 62.8995Z" fill="white"/>
<path d="M91.8814 62.8995C90.3294 62.8995 89.0714 64.1701 89.0714 65.7376C89.0714 67.3052 90.3294 68.5757 91.8814 68.5757C93.4334 68.5757 94.6914 67.3052 94.6914 65.7376C94.6914 64.1701 93.4334 62.8995 91.8814 62.8995Z" fill="white"/>
<path d="M71.0864 62.8995C69.5344 62.8995 68.2764 64.1701 68.2764 65.7376C68.2764 67.3052 69.5344 68.5757 71.0864 68.5757C72.6384 68.5757 73.8964 67.3052 73.8964 65.7376C73.8964 64.1701 72.6384 62.8995 71.0864 62.8995Z" fill="white"/>
<path d="M102.298 44.6781H81.4644V52.9005H102.298V44.6781Z" fill="white"/>
</svg>
