<svg width="190" height="181" viewBox="0 0 190 181" fill="none" xmlns="http://www.w3.org/2000/svg">
<path d="M126.81 63H50.15V152.55H126.81V63Z" fill="#1F6636"/>
<path d="M88.84 14.28L44.06 63H132.9L88.84 14.28Z" fill="#1F6636"/>
<path d="M79.16 91.18V71.72H58.75V91.18H57.31V96.31H80.48V91.18H79.16Z" fill="#A1CDDB"/>
<path d="M68.44 72.67H59.78V81.33H68.44V72.67Z" fill="#EA983E"/>
<path d="M78.01 72.67H69.35V81.33H78.01V72.67Z" fill="#EA983E"/>
<path d="M68.44 82.46H59.78V91.12H68.44V82.46Z" fill="#EA983E"/>
<path d="M78.01 82.46H69.35V91.12H78.01V82.46Z" fill="#EA983E"/>
<path d="M119.28 91.18V71.72H98.87V91.18H97.43V96.31H120.6V91.18H119.28Z" fill="#A1CDDB"/>
<path d="M108.56 72.67H99.9V81.33H108.56V72.67Z" fill="#EA983E"/>
<path d="M118.13 72.67H109.47V81.33H118.13V72.67Z" fill="#EA983E"/>
<path d="M108.56 82.46H99.9V91.12H108.56V82.46Z" fill="#EA983E"/>
<path d="M118.13 82.46H109.47V91.12H118.13V82.46Z" fill="#EA983E"/>
<path d="M119.28 125.09V105.63H98.87V125.09H97.43V130.22H120.6V125.09H119.28Z" fill="#A1CDDB"/>
<path d="M108.56 106.58H99.9V115.24H108.56V106.58Z" fill="#EA983E"/>
<path d="M118.13 106.58H109.47V115.24H118.13V106.58Z" fill="#EA983E"/>
<path d="M108.56 116.37H99.9V125.03H108.56V116.37Z" fill="#EA983E"/>
<path d="M118.13 116.37H109.47V125.03H118.13V116.37Z" fill="#EA983E"/>
<path d="M79.84 117.33C79.84 111.2 74.87 106.23 68.74 106.23C62.61 106.23 57.64 111.2 57.64 117.33V151.72H79.85V117.33H79.84Z" fill="#A1CDDB"/>
<path d="M68.24 133.87H58.71V141.2H68.24V133.87Z" fill="#EA983E"/>
<path d="M78.77 133.87H69.24V141.2H78.77V133.87Z" fill="#EA983E"/>
<path d="M68.24 142.15H58.71V149.48H68.24V142.15Z" fill="#EA983E"/>
<path d="M78.77 142.15H69.24V149.48H78.77V142.15Z" fill="#EA983E"/>
<path d="M68.24 117.93H58.71V125.03H68.24V117.93Z" fill="#EA983E"/>
<path d="M78.77 117.93H69.24V125.03H78.77V117.93Z" fill="#EA983E"/>
<path d="M68.24 125.96H58.71V133.06H68.24V125.96Z" fill="#EA983E"/>
<path d="M78.77 125.96H69.24V133.06H78.77V125.96Z" fill="#EA983E"/>
<path d="M61.3 110.26L68.02 116.98H58.7C58.7 114.39 59.69 112.03 61.3 110.26Z" fill="#F5D17B"/>
<path d="M68.23 106.97V115.77L62.01 109.55C63.67 108.04 65.84 107.09 68.23 106.96V106.97Z" fill="#F5D17B"/>
<path d="M75.46 109.55L69.24 115.78V106.98C71.62 107.1 73.8 108.06 75.46 109.56V109.55Z" fill="#F5D17B"/>
<path d="M78.77 116.98H69.45L76.17 110.26C77.78 112.03 78.77 114.4 78.77 116.98Z" fill="#F5D17B"/>
<path d="M77.25 49.51V61.57H96V50.46L86.63 44.01L77.25 49.51Z" fill="white"/>
<path d="M89.43 50.46H82.39V56.67H89.43V50.46Z" fill="#EA983E"/>
<path d="M75.64 50.28L86.75 43.11L97.61 50.99" stroke="#F6D27D" stroke-width="2" stroke-miterlimit="10" stroke-linecap="round"/>
<path d="M54.33 63.95C55.1198 63.95 55.76 63.3098 55.76 62.52C55.76 61.7303 55.1198 61.09 54.33 61.09C53.5402 61.09 52.9 61.7303 52.9 62.52C52.9 63.3098 53.5402 63.95 54.33 63.95Z" fill="#F5F4F4"/>
<path d="M59.25 63.95C60.0398 63.95 60.68 63.3098 60.68 62.52C60.68 61.7303 60.0398 61.09 59.25 61.09C58.4602 61.09 57.82 61.7303 57.82 62.52C57.82 63.3098 58.4602 63.95 59.25 63.95Z" fill="#F5F4F4"/>
<path d="M64.18 63.95C64.9698 63.95 65.61 63.3098 65.61 62.52C65.61 61.7303 64.9698 61.09 64.18 61.09C63.3902 61.09 62.75 61.7303 62.75 62.52C62.75 63.3098 63.3902 63.95 64.18 63.95Z" fill="#F5F4F4"/>
<path d="M69.1 63.95C69.8898 63.95 70.53 63.3098 70.53 62.52C70.53 61.7303 69.8898 61.09 69.1 61.09C68.3102 61.09 67.67 61.7303 67.67 62.52C67.67 63.3098 68.3102 63.95 69.1 63.95Z" fill="#F5F4F4"/>
<path d="M74.03 63.95C74.8197 63.95 75.46 63.3098 75.46 62.52C75.46 61.7303 74.8197 61.09 74.03 61.09C73.2402 61.09 72.6 61.7303 72.6 62.52C72.6 63.3098 73.2402 63.95 74.03 63.95Z" fill="#F5F4F4"/>
<path d="M78.96 63.95C79.7498 63.95 80.39 63.3098 80.39 62.52C80.39 61.7303 79.7498 61.09 78.96 61.09C78.1702 61.09 77.53 61.7303 77.53 62.52C77.53 63.3098 78.1702 63.95 78.96 63.95Z" fill="#F5F4F4"/>
<path d="M83.88 63.95C84.6697 63.95 85.31 63.3098 85.31 62.52C85.31 61.7303 84.6697 61.09 83.88 61.09C83.0902 61.09 82.45 61.7303 82.45 62.52C82.45 63.3098 83.0902 63.95 83.88 63.95Z" fill="#F5F4F4"/>
<path d="M88.81 63.95C89.5998 63.95 90.24 63.3098 90.24 62.52C90.24 61.7303 89.5998 61.09 88.81 61.09C88.0202 61.09 87.38 61.7303 87.38 62.52C87.38 63.3098 88.0202 63.95 88.81 63.95Z" fill="#F5F4F4"/>
<path d="M93.73 63.95C94.5198 63.95 95.16 63.3098 95.16 62.52C95.16 61.7303 94.5198 61.09 93.73 61.09C92.9402 61.09 92.3 61.7303 92.3 62.52C92.3 63.3098 92.9402 63.95 93.73 63.95Z" fill="#F5F4F4"/>
<path d="M98.66 63.95C99.4497 63.95 100.09 63.3098 100.09 62.52C100.09 61.7303 99.4497 61.09 98.66 61.09C97.8702 61.09 97.23 61.7303 97.23 62.52C97.23 63.3098 97.8702 63.95 98.66 63.95Z" fill="#F5F4F4"/>
<path d="M103.58 63.95C104.37 63.95 105.01 63.3098 105.01 62.52C105.01 61.7303 104.37 61.09 103.58 61.09C102.79 61.09 102.15 61.7303 102.15 62.52C102.15 63.3098 102.79 63.95 103.58 63.95Z" fill="#F5F4F4"/>
<path d="M108.51 63.95C109.3 63.95 109.94 63.3098 109.94 62.52C109.94 61.7303 109.3 61.09 108.51 61.09C107.72 61.09 107.08 61.7303 107.08 62.52C107.08 63.3098 107.72 63.95 108.51 63.95Z" fill="#F5F4F4"/>
<path d="M113.43 63.95C114.22 63.95 114.86 63.3098 114.86 62.52C114.86 61.7303 114.22 61.09 113.43 61.09C112.64 61.09 112 61.7303 112 62.52C112 63.3098 112.64 63.95 113.43 63.95Z" fill="#F5F4F4"/>
<path d="M118.36 63.95C119.15 63.95 119.79 63.3098 119.79 62.52C119.79 61.7303 119.15 61.09 118.36 61.09C117.57 61.09 116.93 61.7303 116.93 62.52C116.93 63.3098 117.57 63.95 118.36 63.95Z" fill="#F5F4F4"/>
<path d="M123.28 63.95C124.07 63.95 124.71 63.3098 124.71 62.52C124.71 61.7303 124.07 61.09 123.28 61.09C122.49 61.09 121.85 61.7303 121.85 62.52C121.85 63.3098 122.49 63.95 123.28 63.95Z" fill="#F5F4F4"/>
<path d="M79.84 78.28L82.45 84.01L85.91 78.28H79.84Z" fill="#F7F8FA"/>
<path d="M69.34 77.53L71.49 83.44L75.39 78L69.34 77.53Z" fill="#F7F8FA"/>
<path d="M59.25 76.03L61.41 81.95L65.31 76.5L59.25 76.03Z" fill="#F7F8FA"/>
<path d="M50.27 73.17L52 79.27L56 74.7L50.27 73.17Z" fill="#F7F8FA"/>
<path d="M90.35 78.1L93.66 83.61L97.11 77.62L90.35 78.1Z" fill="#F7F8FA"/>
<path d="M101.25 77.11L104.69 83.02L108.27 76.61L101.25 77.11Z" fill="#F7F8FA"/>
<path d="M112.4 76.07L116.57 81.51L119.31 74.7L112.4 76.07Z" fill="#F7F8FA"/>
<path d="M122.27 73.73L126.33 78.7L127.95 70.72L122.27 73.73Z" fill="#F7F8FA"/>
<path d="M48.76 72.67C48.76 72.67 69.54 80.33 98.86 77.46C128.18 74.59 128.32 70.07 128.32 70.07" stroke="#F7F8FA" stroke-miterlimit="10"/>
<path d="M43.97 61.57C44.94 58.82 47.11 56.7 49.21 54.69C52.35 51.68 55.49 48.67 58.63 45.65C60.7 43.66 62.78 41.67 64.59 39.44C67.1 36.34 69.08 32.8 71.91 29.99C75.15 26.77 79.37 24.67 82.48 21.32C84.58 19.05 86.41 16.07 89.43 15.48" stroke="#FBFBFB" stroke-width="4.27" stroke-miterlimit="10" stroke-linecap="round"/>
<path d="M88.81 15.47C91.34 16.47 93.28 18.71 95.13 20.88C97.89 24.12 100.66 27.36 103.42 30.61C105.24 32.75 107.07 34.89 109.12 36.76C111.96 39.35 115.21 41.4 117.79 44.32C120.74 47.67 122.67 52.02 125.75 55.23C127.83 57.4 130.57 59.29 131.11 62.41" stroke="#FBFBFB" stroke-width="4.15" stroke-miterlimit="10" stroke-linecap="round"/>
<path d="M43.81 152.68C47.19 151.04 51.21 151.12 55.08 151.23C60.86 151.4 66.63 151.56 72.41 151.73C76.22 151.84 80.04 151.95 83.8 151.58C89.02 151.07 94.11 149.65 99.39 149.71C105.45 149.78 111.51 151.81 117.54 151.62C121.63 151.49 126.07 150.45 129.6 152.75" stroke="#FBFBFB" stroke-width="5.65" stroke-miterlimit="10" stroke-linecap="round"/>
</svg>
