<svg width="160" height="181" viewBox="0 0 160 181" fill="none" xmlns="http://www.w3.org/2000/svg">
<path d="M127.81 107.25H44.87V155.2H127.81V107.25Z" fill="#FF8FAA"/>
<path d="M112.02 47.37L87.93 22.76L63.03 47.9H49.22V95.84H123.46V47.9L112.02 47.37Z" fill="#FF8FAA"/>
<path d="M63.03 84.44V58.14H75.13C75.13 58.14 78.16 46.39 89.33 47.43C96.37 48.09 98.41 58.83 98.41 58.83H110.98V86.06H63.03" fill="#F8F1F4"/>
<path d="M69.08 119.12H51.39V141.23H69.08V119.12Z" fill="#FAFAF8"/>
<path d="M68.03 120.46H52.55V139.95H68.03V120.46Z" fill="#285164"/>
<path d="M60.23 119.58V140.47" stroke="#FAFAF8" stroke-width="0.65" stroke-miterlimit="10"/>
<path d="M68.55 130.03H51.42" stroke="#FAFAF8" stroke-width="0.65" stroke-miterlimit="10"/>
<path d="M121.39 119.12H103.7V141.23H121.39V119.12Z" fill="#FAFAF8"/>
<path d="M120.34 120.46H104.86V139.95H120.34V120.46Z" fill="#285164"/>
<path d="M112.54 119.58V140.47" stroke="#FAFAF8" stroke-width="0.65" stroke-miterlimit="10"/>
<path d="M120.86 130.03H103.73" stroke="#FAFAF8" stroke-width="0.65" stroke-miterlimit="10"/>
<path d="M74.78 63.2H64.83V83.62H74.78V63.2Z" fill="#285164"/>
<path d="M69.8 61.45V84.5" stroke="#F8F1F4" stroke-width="0.65" stroke-miterlimit="10"/>
<path d="M64.02 69.78H75.83" stroke="#F8F1F4" stroke-width="0.65" stroke-miterlimit="10"/>
<path d="M64.02 78.1H75.83" stroke="#F8F1F4" stroke-width="0.65" stroke-miterlimit="10"/>
<path d="M108.59 63.2H98.64V83.62H108.59V63.2Z" fill="#285164"/>
<path d="M103.61 61.45V84.5" stroke="#F8F1F4" stroke-width="0.65" stroke-miterlimit="10"/>
<path d="M97.82 69.78H109.63" stroke="#F8F1F4" stroke-width="0.65" stroke-miterlimit="10"/>
<path d="M97.82 78.1H109.63" stroke="#F8F1F4" stroke-width="0.65" stroke-miterlimit="10"/>
<path d="M76.87 83.6199V59.1099C76.87 58.4799 76.99 57.8499 77.23 57.2699C78.25 54.7299 81.57 48.1699 88.33 48.5899C92.54 48.8499 95.05 53.8499 96.11 56.5699C96.51 57.5899 96.71 58.6599 96.71 59.7599V83.6199H76.87Z" fill="#285164"/>
<path d="M87.35 47.78V84.5" stroke="#F8F1F4" stroke-width="0.65" stroke-miterlimit="10"/>
<path d="M75.54 58.84H97.82" stroke="#F8F1F4" stroke-width="0.65" stroke-miterlimit="10"/>
<path d="M75.54 65.59H97.82" stroke="#F8F1F4" stroke-width="0.65" stroke-miterlimit="10"/>
<path d="M75.83 72.6299H97.53" stroke="#F8F1F4" stroke-width="0.65" stroke-miterlimit="10"/>
<path d="M75.83 78.5H97.53" stroke="#F8F1F4" stroke-width="0.65" stroke-miterlimit="10"/>
<path d="M78.62 52.73H96.08" stroke="#F8F1F4" stroke-width="0.65" stroke-miterlimit="10"/>
<path d="M92.94 119.94C92.94 114.83 89.6 110.68 85.49 110.68C81.38 110.68 78.04 114.83 78.04 119.94V153.87H92.94V119.94Z" fill="#FAFAF8"/>
<path d="M80.5 114.05L85.01 119.65H78.76C78.76 117.49 79.42 115.52 80.5 114.05Z" fill="#285164"/>
<path d="M85.15 111.3V118.64L80.98 113.45C82.09 112.19 83.55 111.39 85.15 111.29V111.3Z" fill="#285164"/>
<path d="M90 113.45L85.83 118.64V111.3C87.43 111.4 88.89 112.2 90 113.45Z" fill="#285164"/>
<path d="M92.22 119.65H85.97L90.48 114.05C91.56 115.53 92.22 117.5 92.22 119.65Z" fill="#285164"/>
<path d="M92.21 120.69H78.75V153.88H92.21V120.69Z" fill="#26796D"/>
<path d="M85.49 132.61C87.3954 132.61 88.94 131.065 88.94 129.16C88.94 127.255 87.3954 125.71 85.49 125.71C83.5846 125.71 82.04 127.255 82.04 129.16C82.04 131.065 83.5846 132.61 85.49 132.61Z" stroke="#7F1D24" stroke-width="1.3" stroke-miterlimit="10"/>
<path d="M98.4 33L115.16 48.6H130.29L121.68 33H98.4Z" fill="#556F7E"/>
<path d="M49.22 95.84H123.46L134.71 111.2H39.98L49.22 95.84Z" fill="#556F7E"/>
<path d="M44.87 48.6L53.45 33H74.78L59.83 48.6H44.87Z" fill="#556F7E"/>
<path d="M44.42 156.31C47.77 154.68 51.75 154.76 55.57 154.87C61.29 155.03 67.01 155.19 72.72 155.35C76.49 155.46 80.29 154.7 84 155.19C89.29 155.9 94.29 154.2 99.43 153.33C105.34 152.33 111.42 155.12 117.4 155.21C122.23 155.28 127.91 154.58 129.34 156.32" stroke="#FBFBFB" stroke-width="6.5" stroke-miterlimit="10" stroke-linecap="round"/>
<path d="M54.18 32.99C58.32 31.57 68.18 31.14 72.39 31.82" stroke="#FBFBFB" stroke-width="7" stroke-miterlimit="10" stroke-linecap="round"/>
<path d="M101.52 32.56C105.72 31.34 115.59 31.38 119.77 32.25" stroke="#FBFBFB" stroke-width="7" stroke-miterlimit="10" stroke-linecap="round"/>
<path d="M44.87 63.85L87.98 21.95L127.61 63.85" stroke="#556F7E" stroke-width="2.59" stroke-miterlimit="10" stroke-linecap="round"/>
<path d="M46.24 64.39C46.18 65.36 47.6 65.57 48.54 65.33C50.46 64.83 52.35 63.9 53.55 62.31C54.3 61.31 54.71 60.02 54.64 58.79C54.59 57.87 55.22 57.02 56.14 56.97C57.83 56.88 59.5 56.18 60.71 54.99C61.92 53.8 62.64 52.14 62.75 50.44C62.81 49.45 63.63 48.73 64.62 48.79C66.35 48.89 68.12 48.27 69.34 47.03C70.44 45.91 71.02 44.33 71.02 42.76C71.02 41.78 71.82 40.94 72.8 41.06C74.48 41.26 76.25 40.73 77.46 39.54C78.53 38.49 79.09 36.98 79.08 35.48C79.08 34.4 80 33.56 81.06 33.76C82.31 33.99 83.6 33.87 84.73 33.29C86.07 32.59 86.95 31.34 87.12 29.86C87.19 29.31 87.91 29.12 88.26 29.56C89.72 31.37 91.3 32.24 94.65 32.64C94.81 32.66 94.87 32.88 94.72 32.95C93.63 33.51 93 34.95 93.22 36.21C93.48 37.75 94.64 38.98 95.9 39.89C97.4 40.98 99.33 41.75 101.13 41.63C102.07 41.57 102.88 42.27 102.92 43.21C102.96 44.49 103.41 45.75 104.22 46.74C105.5 48.32 107.65 49.16 109.67 48.85C109.88 48.82 110.11 48.78 110.3 48.87C110.67 49.05 110.68 49.56 110.68 49.97C110.7 51.92 111.95 53.7 113.53 54.84C114.7 55.68 116.04 56.22 117.42 56.67C118.16 56.91 118.65 57.63 118.57 58.41C118.42 59.85 118.93 61.37 119.96 62.39C121.32 63.72 123.5 64.13 125.25 63.38" stroke="#29533D" stroke-width="2.6" stroke-miterlimit="10"/>
<path d="M82.13 26.94V32.07C82.13 32.56 82.64 32.87 83.08 32.65L87.81 30.28C88.27 30.05 88.29 29.39 87.85 29.13L83.12 26.37C82.68 26.12 82.14 26.43 82.14 26.93L82.13 26.94Z" fill="#DF362F"/>
<path d="M93.73 32.34V27.21C93.73 26.72 93.22 26.41 92.78 26.63L88.05 29C87.59 29.23 87.57 29.89 88.01 30.15L92.74 32.91C93.18 33.16 93.72 32.85 93.72 32.35L93.73 32.34Z" fill="#DF362F"/>
<path d="M88.04 31.1C88.8905 31.1 89.58 30.4105 89.58 29.56C89.58 28.7094 88.8905 28.02 88.04 28.02C87.1895 28.02 86.5 28.7094 86.5 29.56C86.5 30.4105 87.1895 31.1 88.04 31.1Z" fill="#DF362F"/>
</svg>
