<svg width="76" height="70" viewBox="0 0 76 70" fill="none" xmlns="http://www.w3.org/2000/svg">
<path d="M12.3517 67.6055L3.49579 29.6655L66.4255 14.9766L75.2814 52.9165C75.5389 54.0197 74.7763 55.14 73.5775 55.4199L14.9877 69.0958C13.7889 69.3757 12.6092 68.7088 12.3517 67.6055Z" fill="white"/>
<path d="M46.7505 38.5198L31.5606 42.0654L36.1259 27.3131L46.7505 38.5198Z" fill="#3C9155"/>
<path d="M40.9474 57.7721L45.2874 56.759L43.8891 50.7685L39.5491 51.7815L40.9474 57.7721Z" fill="#84542C"/>
<path d="M42.4106 39.5329L35.9005 41.0525L31.9542 53.5546L51.484 48.996L42.4106 39.5329Z" fill="#3C9155"/>
<path d="M3.49579 29.6654L1.63138 21.678C1.37387 20.5748 2.13639 19.4545 3.33525 19.1746L61.925 5.4987C63.1239 5.21886 64.3035 5.88581 64.5611 6.98901L66.4255 14.9764L3.49579 29.6654Z" fill="#EB0307"/>
<path d="M57.6653 11.7571C57.0652 11.8971 56.4761 11.564 56.3472 11.0119C56.2183 10.4597 56.5991 9.90019 57.1992 9.76013C58.9938 9.34124 60.1405 7.65647 59.755 6.00506C59.3695 4.35365 57.5954 3.35066 55.8008 3.76955C54.0062 4.18844 52.8595 5.87321 53.245 7.52462C53.3739 8.07679 52.993 8.6363 52.393 8.77636C51.793 8.91642 51.2038 8.58333 51.0749 8.03116C50.4324 5.27847 52.3432 2.471 55.3346 1.77275C58.326 1.07451 61.2823 2.74589 61.9249 5.49858C62.5674 8.25126 60.6566 11.0588 57.6653 11.7571Z" fill="#3C9155"/>
<path d="M45.7303 14.543C45.1302 14.683 44.5411 14.3499 44.4122 13.7978C44.2833 13.2456 44.6641 12.6861 45.2642 12.546C47.0588 12.1271 48.2055 10.4424 47.82 8.79095C47.4345 7.13954 45.6604 6.13654 43.8658 6.55544C42.0712 6.97433 40.9245 8.6591 41.31 10.3105C41.4389 10.8627 41.058 11.4222 40.458 11.5622C39.858 11.7023 39.2688 11.3692 39.1399 10.817C38.4974 8.06436 40.4082 5.25689 43.3996 4.55864C46.391 3.8604 49.3473 5.53178 49.9899 8.28447C50.6324 11.0372 48.7216 13.8447 45.7303 14.543Z" fill="#3C9155"/>
<path d="M33.7954 17.3289C33.1953 17.4689 32.6062 17.1358 32.4773 16.5837C32.3484 16.0315 32.7292 15.472 33.3293 15.3319C35.1239 14.913 36.2706 13.2283 35.8851 11.5769C35.4996 9.92545 33.7256 8.92268 31.931 9.34157C30.1364 9.76046 28.9897 11.4452 29.3751 13.0966C29.504 13.6488 29.1232 14.2083 28.5232 14.3484C27.9231 14.4884 27.3339 14.1553 27.205 13.6032C26.5625 10.8505 28.4734 8.04302 31.4648 7.34478C34.4561 6.64653 37.4125 8.31791 38.055 11.0706C38.6975 13.8233 36.7867 16.6306 33.7954 17.3289Z" fill="#3C9155"/>
<path d="M21.8605 20.1147C21.2604 20.2548 20.6713 19.9217 20.5424 19.3695C20.4135 18.8174 20.7943 18.2579 21.3944 18.1178C23.189 17.6989 24.3357 16.0141 23.9502 14.3627C23.5648 12.7113 21.7907 11.7083 19.9961 12.1272C18.2015 12.5461 17.0547 14.2309 17.4402 15.8823C17.5691 16.4345 17.1883 16.994 16.5882 17.134C15.9882 17.2741 15.399 16.941 15.2701 16.3888C14.6276 13.6361 16.5385 10.8287 19.5298 10.1304C22.5212 9.43218 25.4775 11.1036 26.1201 13.8562C26.7626 16.6089 24.8517 19.4165 21.8605 20.1147Z" fill="#3C9155"/>
<path d="M9.9255 22.9008C9.32545 23.0408 8.73628 22.7077 8.60739 22.1556C8.47851 21.6034 8.85933 21.0439 9.45938 20.9038C11.254 20.4849 12.4007 18.8002 12.0152 17.1487C11.6298 15.4973 9.85572 14.4946 8.06112 14.9135C6.26651 15.3324 5.11976 17.017 5.50523 18.6684C5.63412 19.2206 5.25329 19.7801 4.65325 19.9202C4.0532 20.0602 3.46403 19.7271 3.33514 19.175C2.69261 16.4223 4.6035 13.6148 7.59487 12.9166C10.5862 12.2183 13.5426 13.8897 14.1851 16.6424C14.8276 19.3951 12.9169 22.2025 9.9255 22.9008Z" fill="#3C9155"/>
<path d="M24.4053 44.7884L22.9069 45.1382C22.4219 45.2514 21.9447 44.9816 21.8403 44.5344L21.5187 43.1566C21.4143 42.7092 21.7227 42.2562 22.2077 42.143L23.7061 41.7932C24.1911 41.68 24.6693 41.9496 24.7737 42.3968L25.0953 43.7746C25.1997 44.2219 24.8901 44.6752 24.4053 44.7884Z" fill="#EEC319"/>
<path d="M14.4797 36.577L12.9814 36.9267C12.4964 37.0399 12.0192 36.7702 11.9148 36.323L11.5932 34.9451C11.4888 34.4978 11.7973 34.0448 12.2823 33.9316L13.7807 33.5818C14.2657 33.4686 14.7439 33.7382 14.8483 34.1854L15.1699 35.5632C15.2743 36.0105 14.9647 36.4638 14.4797 36.577Z" fill="#EEC319"/>
<path d="M50.7507 30.2164L49.2523 30.5661C48.7673 30.6793 48.2901 30.4096 48.1858 29.9624L47.8641 28.5845C47.7597 28.1372 48.0682 27.6842 48.5532 27.571L50.0516 27.2212C50.5366 27.108 51.0148 27.3776 51.1192 27.8248L51.4408 29.2026C51.5452 29.6498 51.2357 30.1032 50.7507 30.2164Z" fill="#EEC319"/>
<path d="M61.7611 38.1746L60.2627 38.5244C59.7777 38.6376 59.3005 38.3678 59.1961 37.9206L58.8745 36.5428C58.7701 36.0955 59.0785 35.6424 59.5635 35.5292L61.0619 35.1795C61.5469 35.0663 62.0251 35.3358 62.1295 35.783L62.4511 37.1608C62.5556 37.6081 62.2461 38.0614 61.7611 38.1746Z" fill="#EEC319"/>
<path d="M60.2178 51.1686L58.7194 51.5183C58.2344 51.6315 57.7573 51.3617 57.6529 50.9145L57.3313 49.5367C57.2269 49.0894 57.5354 48.6363 58.0202 48.5231L59.5186 48.1734C60.0036 48.0602 60.4818 48.3297 60.5862 48.7769L60.9078 50.1548C61.0123 50.6019 60.7028 51.0554 60.2178 51.1686Z" fill="#EEC319"/>
<path d="M23.3279 59.7794L21.8295 60.1291C21.3445 60.2423 20.8673 59.9726 20.763 59.5253L20.4414 58.1475C20.3369 57.7002 20.6454 57.2472 21.1304 57.134L22.6288 56.7842C23.1138 56.671 23.592 56.9405 23.6964 57.3878L24.018 58.7656C24.1225 59.2127 23.8129 59.6662 23.3279 59.7794Z" fill="#EEC319"/>
</svg>
