<svg width="60" height="66" viewBox="0 0 60 66" fill="none" xmlns="http://www.w3.org/2000/svg">
<path fill-rule="evenodd" clip-rule="evenodd" d="M38.6175 8.39828C27.502 4.3668 15.5059 9.82288 11.8093 20.0149C9.51183 26.3495 10.9595 34.0404 13.0588 40.5246C14.8754 46.1358 17.3369 51.2862 18.8756 54.5052C19.1407 55.0603 19.3787 55.5581 19.581 55.9907C19.8462 56.5576 20.3258 56.9962 20.9142 57.2096C21.5026 57.423 22.1518 57.3938 22.7187 57.1287C23.1514 56.9264 23.6531 56.6969 24.2124 56.441C27.4566 54.9565 32.6477 52.5816 37.6392 49.4397C43.407 45.8088 49.4483 40.8341 51.7458 34.4995C55.4424 24.3074 49.7329 12.4297 38.6175 8.39828Z" fill="#3C9155"/>
<circle cx="32.2702" cy="24.9706" r="9" transform="rotate(4.93515 32.2702 24.9706)" fill="white"/>
</svg>
