<svg width="189" height="175" viewBox="0 0 189 175" fill="none" xmlns="http://www.w3.org/2000/svg">
<path d="M44.78 145.07L40.24 98.99L70.09 61.97L97.31 93.25L149.61 95.64L145.55 147.22L44.78 145.07Z" fill="#AC0003"/>
<path d="M62.33 74.87V97.43H78.93L79.52 74.87H62.33Z" fill="#F1EECC"/>
<path d="M77.79 76.18H64.18V96.12H77.79V76.18Z" fill="#CBA36F"/>
<path d="M76.41 77.73H71.22V84.42H76.41V77.73Z" fill="#F3E5CD"/>
<path d="M76.18 86.81H71.22V93.85H76.18V86.81Z" fill="#F3E5CD"/>
<path d="M69.19 77.73H65.97V84.42H69.19V77.73Z" fill="#F3E5CD"/>
<path d="M69.19 86.81H65.97V93.5H69.19V86.81Z" fill="#F3E5CD"/>
<g filter="url(#filter0_d_385_538)">
<path d="M112.92 108H107.28V131.82H112.92V108Z" fill="#C58351"/>
</g>
<g filter="url(#filter1_d_385_538)">
<path d="M136.83 108H131.19V131.82H136.83V108Z" fill="#C58351"/>
</g>
<path d="M131.38 107.1H112.48V131.37H131.38V107.1Z" fill="#F5F7F2"/>
<path d="M120.27 109.61H114.09V118.92H120.27V109.61Z" fill="#D7EDF5" stroke="#01232C" stroke-width="0.25" stroke-miterlimit="10"/>
<path d="M129.05 108.99H122.87V118.3H129.05V108.99Z" fill="#D7EDF5" stroke="#01232C" stroke-width="0.25" stroke-miterlimit="10"/>
<path d="M129.05 121.61H122.87V129.04H129.05V121.61Z" fill="#D7EDF5" stroke="#01232C" stroke-width="0.22" stroke-miterlimit="10"/>
<path d="M120.72 121.61H114.54V129.04H120.72V121.61Z" fill="#D7EDF5" stroke="#01232C" stroke-width="0.22" stroke-miterlimit="10"/>
<g filter="url(#filter2_d_385_538)">
<path d="M132.54 131.82H110.87V134.78H132.54V131.82Z" fill="#FEF7EC"/>
</g>
<path d="M54.01 145.88C54.01 145.88 49.65 105.22 68.31 104.78C68.31 104.78 84.73 103.88 84.82 123.59L84.46 146.69H54.19L54.01 145.88Z" fill="#F9F9F1" stroke="#C58351" stroke-width="0.5" stroke-miterlimit="10"/>
<path d="M56.87 146.33C56.87 146.33 53.83 110.24 66.27 108.99C66.27 108.99 80.06 106.39 80.69 122.6C81.32 138.81 80.69 123.05 80.69 123.05L81.32 146.33H56.87Z" fill="#F4BA64" stroke="#C58351" stroke-width="0.5" stroke-miterlimit="10"/>
<path d="M78.62 126.18H71.22V143.82H78.62V126.18Z" stroke="#C58351" stroke-width="0.5" stroke-miterlimit="10"/>
<path d="M68.33 126.18H60.93V143.82H68.33V126.18Z" stroke="#C58351" stroke-width="0.5" stroke-miterlimit="10"/>
<path d="M71.22 122.06V112.48C71.22 112.48 77.71 113.2 78.24 122.06H71.22Z" stroke="#C58351" stroke-width="0.5" stroke-miterlimit="10"/>
<path d="M68.33 122.06V112.48C68.33 112.48 61.84 113.2 61.31 122.06H68.33Z" stroke="#C58351" stroke-width="0.5" stroke-miterlimit="10"/>
<path d="M69.17 65.24L47.92 89.8C46.02 91.99 44.43 94.45 43.32 97.13C41.85 100.7 38.86 105.44 34.21 101.73L32.42 96.12C31.33 96.12 30.45 95.24 30.45 94.15V93.09C30.45 90.34 31.4 87.68 33.13 85.54L59.18 53.48C61.51 50.61 64.89 48.67 68.59 48.42C70.41 48.3 72.38 48.56 74.3 49.58C76.03 50.5 77.98 50.9 79.93 50.94L128.06 51.94C128.06 51.94 131.64 52.48 136.84 58.57C142.04 64.66 152.42 78.81 155.83 82.75C159.24 86.69 162.1 95.11 155.11 94.93C149.28 94.78 112.86 94.13 100.99 93.92C98.61 93.88 96.38 92.81 94.85 90.99L73.24 65.27C72.18 64.01 70.25 64 69.17 65.24Z" fill="#FBFCFD" stroke="#EDF4F7" stroke-width="0.25" stroke-miterlimit="10"/>
<path d="M86.33 41.55V54.27H93.29C94.2 54.18 95.79 53.1 95.98 52.96C95.99 52.95 96 52.95 96 52.95V41.55H86.33Z" fill="#B86654"/>
<path d="M32.87 92.79C39.85 84.16 46.53 75.28 52.88 66.17C56.09 61.58 59.26 56.87 63.49 53.2C65.03 51.86 66.95 50.62 68.96 50.94C70.25 51.15 71.35 51.98 72.38 52.78C78.8 57.76 85.31 62.84 90.08 69.43C91.52 71.42 92.78 73.56 94.42 75.4C99.88 81.55 104.71 84.41 108.3 84.16" stroke="#EDF4F7" stroke-width="8" stroke-miterlimit="10" stroke-linecap="round"/>
<path d="M85.93 40.02C86.36 39.46 87.12 39.27 87.83 39.26C88.54 39.25 89.23 39.41 89.94 39.39C90.93 39.37 91.88 39.02 92.87 38.96C93.84 38.9 94.87 39.13 95.76 38.74" stroke="#EDF4F7" stroke-width="6" stroke-miterlimit="10" stroke-linecap="round"/>
<path opacity="0.27" d="M112.79 84.12L135.71 83.88C135.71 83.88 139.36 66.81 126.41 64.06C113.46 61.31 111.4 77.25 112.79 84.12Z" fill="#F5F7F2" stroke="#01232C" stroke-width="0.26" stroke-miterlimit="10"/>
<path opacity="0.44" d="M117.18 80.6H132.42C132.42 80.6 133.67 67.7 125.49 67.59C117.31 67.48 115.67 73.8 117.18 80.6Z" fill="#F5F7F2" stroke="#01232C" stroke-width="0.26" stroke-miterlimit="10"/>
<path d="M124.25 67.58L124.84 80.6" stroke="#01232C" stroke-width="0.29" stroke-miterlimit="10"/>
<path d="M116.68 74.51L131.94 74.87" stroke="#01232C" stroke-width="0.26" stroke-miterlimit="10"/>
<path d="M38.42 150.61C43.03 148.37 48.52 148.48 53.78 148.63C61.66 148.85 69.53 149.08 77.41 149.3C82.6 149.45 87.81 149.59 92.94 149.09C100.06 148.4 106.99 146.46 114.2 146.54C122.46 146.64 130.72 149.39 138.95 149.14C144.52 148.97 150.58 147.55 155.4 150.68" stroke="#FBFBFB" stroke-width="7.7" stroke-miterlimit="10" stroke-linecap="round"/>
<defs>
<filter id="filter0_d_385_538" x="101.62" y="105.17" width="16.96" height="35.14" filterUnits="userSpaceOnUse" color-interpolation-filters="sRGB">
<feFlood flood-opacity="0" result="BackgroundImageFix"/>
<feColorMatrix in="SourceAlpha" type="matrix" values="0 0 0 0 0 0 0 0 0 0 0 0 0 0 0 0 0 0 127 0" result="hardAlpha"/>
<feOffset dy="2.83"/>
<feGaussianBlur stdDeviation="2.83"/>
<feColorMatrix type="matrix" values="0 0 0 0 0.113725 0 0 0 0 0.113725 0 0 0 0 0.105882 0 0 0 0.28 0"/>
<feBlend mode="normal" in2="BackgroundImageFix" result="effect1_dropShadow_385_538"/>
<feBlend mode="normal" in="SourceGraphic" in2="effect1_dropShadow_385_538" result="shape"/>
</filter>
<filter id="filter1_d_385_538" x="125.53" y="105.17" width="16.96" height="35.14" filterUnits="userSpaceOnUse" color-interpolation-filters="sRGB">
<feFlood flood-opacity="0" result="BackgroundImageFix"/>
<feColorMatrix in="SourceAlpha" type="matrix" values="0 0 0 0 0 0 0 0 0 0 0 0 0 0 0 0 0 0 127 0" result="hardAlpha"/>
<feOffset dy="2.83"/>
<feGaussianBlur stdDeviation="2.83"/>
<feColorMatrix type="matrix" values="0 0 0 0 0.113725 0 0 0 0 0.113725 0 0 0 0 0.105882 0 0 0 0.62 0"/>
<feBlend mode="normal" in2="BackgroundImageFix" result="effect1_dropShadow_385_538"/>
<feBlend mode="normal" in="SourceGraphic" in2="effect1_dropShadow_385_538" result="shape"/>
</filter>
<filter id="filter2_d_385_538" x="105.21" y="128.99" width="32.99" height="14.28" filterUnits="userSpaceOnUse" color-interpolation-filters="sRGB">
<feFlood flood-opacity="0" result="BackgroundImageFix"/>
<feColorMatrix in="SourceAlpha" type="matrix" values="0 0 0 0 0 0 0 0 0 0 0 0 0 0 0 0 0 0 127 0" result="hardAlpha"/>
<feOffset dy="2.83"/>
<feGaussianBlur stdDeviation="2.83"/>
<feColorMatrix type="matrix" values="0 0 0 0 0.113725 0 0 0 0 0.113725 0 0 0 0 0.105882 0 0 0 0.62 0"/>
<feBlend mode="normal" in2="BackgroundImageFix" result="effect1_dropShadow_385_538"/>
<feBlend mode="normal" in="SourceGraphic" in2="effect1_dropShadow_385_538" result="shape"/>
</filter>
</defs>
</svg>
