<svg width="42" height="43" viewBox="0 0 42 43" fill="none" xmlns="http://www.w3.org/2000/svg">
<path d="M12.8426 35.5948C19.9354 39.6898 29.0424 37.1947 33.1837 30.0218C37.3249 22.849 34.9322 13.7145 27.8394 9.61952C20.7466 5.5245 11.6397 8.01959 7.49841 15.1924C3.35716 22.3653 5.74984 31.4997 12.8426 35.5948Z" fill="#F3E7DE"/>
<path d="M30.9404 15.5172C30.5763 15.307 30.1087 15.4349 29.896 15.8033C29.6835 16.1715 29.8062 16.6405 30.1704 16.8507C30.5345 17.0609 31.0021 16.933 31.2148 16.5646C31.4273 16.1964 31.3044 15.7273 30.9404 15.5172Z" fill="#FF8FAA"/>
<path d="M26.0608 12.7C25.6966 12.4897 25.2291 12.6178 25.0165 12.9861C24.8039 13.3543 24.9266 13.8233 25.2909 14.0336C25.6549 14.2438 26.1225 14.1158 26.3352 13.7475C26.5478 13.3793 26.425 12.9103 26.0608 12.7Z" fill="#FF8FAA"/>
<path d="M21.1812 9.88287C20.8171 9.67268 20.3495 9.80067 20.1369 10.169C19.9243 10.5372 20.047 11.0062 20.4113 11.2165C20.7753 11.4267 21.2429 11.2987 21.4556 10.9303C21.6681 10.5622 21.5454 10.0932 21.1812 9.88287Z" fill="#FF8FAA"/>
<path d="M19.5062 35.3219C19.8703 35.5322 20.3379 35.4041 20.5505 35.0358C20.7631 34.6675 20.6403 34.1986 20.2761 33.9883C19.912 33.7781 19.4444 33.9062 19.2318 34.2745C19.0192 34.6427 19.142 35.1117 19.5062 35.3219Z" fill="#FF8FAA"/>
<path d="M14.6266 32.5045C14.9908 32.7148 15.4583 32.5867 15.6709 32.2184C15.8836 31.8502 15.7607 31.3812 15.3966 31.171C15.0324 30.9607 14.5649 31.0888 14.3522 31.4571C14.1396 31.8253 14.2625 32.2943 14.6266 32.5045Z" fill="#FF8FAA"/>
<path d="M9.74704 29.6874C10.1112 29.8976 10.5788 29.7695 10.7914 29.4013C11.004 29.033 10.8811 28.5641 10.517 28.3538C10.1528 28.1436 9.68528 28.2717 9.47267 28.6399C9.26005 29.0082 9.38289 29.4772 9.74704 29.6874Z" fill="#FF8FAA"/>
<path d="M32.4109 9.31922L25.8136 5.51025L24.3085 8.11723L30.9058 11.9262L32.4109 9.31922Z" fill="#EB1111"/>
<mask id="mask0_51_1343" style="mask-type:luminance" maskUnits="userSpaceOnUse" x="5" y="7" width="31" height="31">
<path d="M12.8426 35.5948C19.9354 39.6898 29.0424 37.1947 33.1837 30.0218C37.3249 22.849 34.9322 13.7145 27.8394 9.61952C20.7466 5.5245 11.6397 8.01959 7.49841 15.1924C3.35716 22.3653 5.74984 31.4997 12.8426 35.5948Z" fill="white"/>
</mask>
<g mask="url(#mask0_51_1343)">
<path d="M8.4404 16.9034C6.47976 18.1062 4.51903 19.3092 2.55839 20.512L8.25605 23.8016C8.31742 21.5022 8.37894 19.2029 8.4404 16.9034Z" fill="#1F6636"/>
<path d="M14.1381 20.1927C12.1774 21.3955 10.2167 22.5985 8.25605 23.8013L13.9537 27.0909C14.0151 24.7915 14.0766 22.4922 14.1381 20.1927Z" fill="#1F6636"/>
<path d="M19.8357 23.4825C17.8752 24.6854 15.9143 25.8883 13.9537 27.0911L19.6514 30.3807C19.7129 28.0814 19.7742 25.782 19.8357 23.4825Z" fill="#1F6636"/>
<path d="M25.5335 26.772C23.5729 27.9749 21.6122 29.1778 19.6515 30.3807L25.3492 33.6702C25.4105 31.3708 25.4719 29.0715 25.5335 26.772Z" fill="#1F6636"/>
<path d="M31.2312 30.0616C29.2705 31.2644 27.3098 32.4674 25.3492 33.6702L31.0468 36.9598C31.1082 34.6604 31.1697 32.3611 31.2312 30.0616Z" fill="#1F6636"/>
</g>
</svg>
