<svg width="402" height="874" viewBox="0 0 402 874" fill="none" xmlns="http://www.w3.org/2000/svg">
<g clip-path="url(#clip0_507_1337)">
<rect width="402" height="874" fill="#3C9155"/>
<g filter="url(#filter0_d_507_1337)">
<g clip-path="url(#clip1_507_1337)">
<rect x="-23" y="528" width="428" height="12" rx="6" fill="#F3E7DE"/>
<rect x="587.069" y="879.406" width="30.0595" height="688.26" transform="rotate(123.263 587.069 879.406)" fill="#3C9155"/>
<rect x="696.226" y="745.505" width="30.0595" height="688.26" transform="rotate(123.263 696.226 745.505)" fill="#EB0307"/>
<rect x="659.84" y="790.139" width="30.0595" height="688.26" transform="rotate(123.263 659.84 790.139)" fill="#3C9155"/>
<rect x="623.455" y="834.773" width="30.0595" height="688.26" transform="rotate(123.263 623.455 834.773)" fill="#EB0307"/>
</g>
</g>
<path d="M402 540H-5V878H402V540Z" fill="#FFADC7"/>
<path d="M53.9216 752.886L62.8111 759.057L-3.2402 842.16C-8.12888 848.311 -18.5873 848.816 -26.5531 843.287C-34.5189 837.757 -37.0228 828.254 -32.1338 822.103L-24.5885 812.61L-15.699 818.781L-23.2444 828.274C-25.1249 830.64 -24.1619 834.296 -21.0976 836.423C-18.0333 838.55 -14.0105 838.356 -12.1297 835.989L53.9216 752.886Z" fill="#FF4026"/>
<mask id="mask0_507_1337" style="mask-type:luminance" maskUnits="userSpaceOnUse" x="-35" y="752" width="98" height="96">
<path d="M-26.5531 843.287C-18.5873 848.816 -8.12919 848.311 -3.2402 842.16L62.8111 759.057L53.9216 752.886L-12.1297 835.989C-14.0102 838.355 -18.0333 838.55 -21.0976 836.423C-24.1619 834.296 -25.1252 830.64 -23.2444 828.274L-15.699 818.781L-24.5885 812.61L-32.1338 822.103C-37.0225 828.254 -34.5189 837.757 -26.5531 843.287Z" fill="white"/>
</mask>
<g mask="url(#mask0_507_1337)">
<path d="M66.6932 755.371L56.9302 748.594L55.2183 750.748L64.9813 757.525L66.6932 755.371Z" fill="white"/>
<path d="M-26.8589 843.671C-28.8369 842.298 -30.5297 840.667 -31.8904 838.823L-22.6317 834.435C-21.9831 835.313 -21.0809 836.078 -20.0803 836.615L-24.6303 845.037C-25.3943 844.626 -26.1441 844.167 -26.8589 843.671ZM-15.4259 847.649L-16.8514 837.529C-15.7435 837.585 -14.6947 837.379 -13.8176 836.933L-6.83938 845.956C-9.32987 847.223 -12.2989 847.808 -15.4259 847.649ZM-35.1962 830.749C-35.5112 827.963 -34.9774 825.287 -33.6518 823.012L-23.2594 828.869C-23.7219 829.663 -23.9082 830.6 -23.7975 831.578L-35.1962 830.749ZM-1.50558 841.176L-11.2691 834.399L-7.94486 830.217L1.81868 836.994L-1.50558 841.176ZM-20.3208 825.102L-30.0839 818.324L-26.7596 814.142L-16.9966 820.919L-20.3208 825.102ZM5.14294 832.812L-4.6206 826.034L-1.29635 821.852L8.46718 828.629L5.14294 832.812ZM11.7918 824.446L2.02821 817.669L5.35247 813.486L15.116 820.264L11.7918 824.446ZM18.4403 816.081L8.67672 809.304L12.001 805.121L21.7645 811.899L18.4403 816.081ZM25.0891 807.716L15.3255 800.939L18.6498 796.756L28.4133 803.534L25.0891 807.716ZM31.7379 799.351L21.9744 792.573L25.2986 788.391L35.0622 795.168L31.7379 799.351ZM38.3864 790.986L28.6229 784.208L31.9471 780.026L41.7107 786.804L38.3864 790.986ZM45.0352 782.621L35.2717 775.843L38.5959 771.661L48.3595 778.438L45.0352 782.621ZM51.684 774.255L41.9205 767.478L45.2448 763.295L55.0083 770.073L51.684 774.255ZM58.3325 765.891L48.569 759.113L51.8933 754.931L61.6568 761.708L58.3325 765.891Z" fill="white"/>
</g>
<path d="M48.612 879.634C71.475 885.359 95.0315 872.484 101.227 850.876C107.422 829.268 93.9102 807.11 71.0471 801.385C48.1841 795.66 24.6276 808.536 18.4323 830.143C12.237 851.751 25.7489 873.909 48.612 879.634Z" fill="#FF4026"/>
<path d="M84.1151 814.604C82.9416 814.31 81.732 814.97 81.4138 816.08C81.0958 817.189 81.7893 818.327 82.9633 818.621C84.1368 818.915 85.3464 818.254 85.6646 817.144C85.9826 816.035 85.2887 814.897 84.1151 814.604Z" fill="white"/>
<path d="M68.3861 810.664C67.2121 810.37 66.0029 811.031 65.6848 812.141C65.3668 813.25 66.0602 814.388 67.2343 814.682C68.4078 814.975 69.6174 814.315 69.9355 813.205C70.2535 812.096 69.5601 810.958 68.3861 810.664Z" fill="white"/>
<path d="M52.6571 806.726C51.4836 806.432 50.2739 807.092 49.9558 808.202C49.6378 809.311 50.3312 810.449 51.5053 810.743C52.6788 811.037 53.8884 810.376 54.2066 809.266C54.5246 808.157 53.8311 807.02 52.6571 806.726Z" fill="white"/>
<path d="M67.0097 874.263C68.1835 874.557 69.3929 873.896 69.711 872.787C70.029 871.677 69.3353 870.54 68.1615 870.246C66.9877 869.952 65.7783 870.613 65.4602 871.722C65.1421 872.832 65.8359 873.969 67.0097 874.263Z" fill="white"/>
<path d="M51.2807 870.325C52.4545 870.619 53.6639 869.958 53.9819 868.848C54.3 867.739 53.6063 866.601 52.4325 866.307C51.2587 866.013 50.0493 866.674 49.7312 867.784C49.4131 868.893 50.1068 870.031 51.2807 870.325Z" fill="white"/>
<path d="M35.5517 866.386C36.7255 866.68 37.9349 866.019 38.2529 864.909C38.571 863.8 37.8773 862.662 36.7035 862.368C35.5297 862.074 34.3203 862.735 34.0022 863.845C33.6841 864.954 34.3778 866.092 35.5517 866.386Z" fill="white"/>
<path d="M83.5843 797.406L62.3184 792.081L60.0667 799.934L81.3326 805.259L83.5843 797.406Z" fill="#F3E7DE"/>
<mask id="mask1_507_1337" style="mask-type:luminance" maskUnits="userSpaceOnUse" x="16" y="800" width="87" height="81">
<path d="M48.612 879.634C71.475 885.359 95.0315 872.484 101.227 850.876C107.422 829.268 93.9102 807.11 71.0471 801.385C48.1841 795.66 24.6276 808.536 18.4323 830.143C12.237 851.751 25.7489 873.909 48.612 879.634Z" fill="white"/>
</mask>
<g mask="url(#mask1_507_1337)">
<path d="M22.3414 833.947C17.7679 838.455 13.1942 842.964 8.62069 847.473L26.9867 852.072C25.4381 846.03 23.8899 839.989 22.3414 833.947Z" fill="#1F6636"/>
<path d="M40.7076 838.545C36.1341 843.054 31.5604 847.563 26.9869 852.072L45.3529 856.671C43.8043 850.629 42.2561 844.588 40.7076 838.545Z" fill="#1F6636"/>
<path d="M59.0734 843.145C54.5003 847.653 49.9262 852.162 45.3526 856.671L63.7186 861.27C62.1705 855.228 60.6218 849.187 59.0734 843.145Z" fill="#1F6636"/>
<path d="M77.4401 847.743C72.8665 852.252 68.2929 856.761 63.7193 861.27L82.0853 865.869C80.5367 859.827 78.9881 853.785 77.4401 847.743Z" fill="#1F6636"/>
<path d="M95.8063 852.343C91.2327 856.851 86.6591 861.36 82.0855 865.869L100.452 870.468C98.9029 864.426 97.3548 858.385 95.8063 852.343Z" fill="#1F6636"/>
</g>
<path d="M21.0469 876.612C35.1738 873.074 43.5227 859.383 39.6947 846.032C35.8667 832.681 21.3113 824.725 7.18445 828.263C-6.94243 831.8 -15.2913 845.491 -11.4633 858.843C-7.63526 872.194 6.92006 880.149 21.0469 876.612Z" fill="white"/>
<path d="M18.5471 831.563C17.822 831.744 17.3932 832.447 17.5897 833.133C17.7862 833.818 18.5334 834.227 19.2588 834.045C19.984 833.863 20.4128 833.161 20.2162 832.475C20.0198 831.79 19.2723 831.381 18.5471 831.563Z" fill="#FF8FAA"/>
<path d="M8.82838 833.996C8.10296 834.178 7.67442 834.881 7.87099 835.566C8.06748 836.252 8.81467 836.66 9.54009 836.479C10.2652 836.297 10.694 835.594 10.4975 834.909C10.301 834.223 9.5538 833.815 8.82838 833.996Z" fill="#FF8FAA"/>
<path d="M-0.890371 836.43C-1.6155 836.612 -2.04433 837.315 -1.84776 838C-1.65127 838.686 -0.904078 839.094 -0.178662 838.913C0.546462 838.731 0.975306 838.028 0.778737 837.343C0.582247 836.657 -0.164955 836.249 -0.890371 836.43Z" fill="#FF8FAA"/>
<path d="M29.1168 868.427C29.842 868.245 30.2707 867.542 30.0742 866.857C29.8776 866.171 29.1303 865.763 28.405 865.945C27.6798 866.126 27.2511 866.829 27.4476 867.515C27.6442 868.2 28.3915 868.608 29.1168 868.427Z" fill="#FF8FAA"/>
<path d="M19.398 870.86C20.1233 870.679 20.5519 869.976 20.3554 869.29C20.1588 868.605 19.4116 868.197 18.6863 868.378C17.961 868.56 17.5324 869.263 17.7289 869.948C17.9254 870.634 18.6727 871.042 19.398 870.86Z" fill="#FF8FAA"/>
<path d="M9.67925 873.294C10.4045 873.112 10.8332 872.41 10.6366 871.724C10.4401 871.039 9.69282 870.63 8.96754 870.812C8.24225 870.993 7.81362 871.696 8.01015 872.382C8.20668 873.067 8.95396 873.476 9.67925 873.294Z" fill="#FF8FAA"/>
<path d="M12.578 822.514L-0.562012 825.804L0.829283 830.657L13.9693 827.367L12.578 822.514Z" fill="#EB1111"/>
<mask id="mask2_507_1337" style="mask-type:luminance" maskUnits="userSpaceOnUse" x="-13" y="827" width="54" height="51">
<path d="M21.0469 876.612C35.1738 873.074 43.5227 859.383 39.6947 846.032C35.8667 832.681 21.3113 824.725 7.18445 828.263C-6.94243 831.8 -15.2913 845.491 -11.4633 858.843C-7.63526 872.194 6.92006 880.149 21.0469 876.612Z" fill="white"/>
</mask>
<g mask="url(#mask2_507_1337)">
<path d="M-8.11337 859.75C-9.07024 863.483 -10.027 867.216 -10.9839 870.949L0.364268 868.108C-2.46168 865.322 -5.28734 862.536 -8.11337 859.75Z" fill="#1F6636"/>
<path d="M3.23478 856.908C2.2779 860.641 1.32111 864.374 0.364236 868.107L11.7124 865.266C8.88646 862.48 6.06081 859.694 3.23478 856.908Z" fill="#1F6636"/>
<path d="M14.5829 854.066C13.6263 857.799 12.6693 861.533 11.7124 865.266L23.0606 862.424C20.2349 859.638 17.4089 856.852 14.5829 854.066Z" fill="#1F6636"/>
<path d="M25.9316 851.224C24.9747 854.957 24.0179 858.691 23.061 862.424L34.4092 859.582C31.5832 856.796 28.7573 854.011 25.9316 851.224Z" fill="#1F6636"/>
<path d="M37.2797 848.383C36.3228 852.116 35.366 855.849 34.4092 859.582L45.7573 856.741C42.9314 853.955 40.1057 851.169 37.2797 848.383Z" fill="#1F6636"/>
</g>
</g>
<defs>
<filter id="filter0_d_507_1337" x="-32.2" y="518.8" width="446.4" height="30.4" filterUnits="userSpaceOnUse" color-interpolation-filters="sRGB">
<feFlood flood-opacity="0" result="BackgroundImageFix"/>
<feColorMatrix in="SourceAlpha" type="matrix" values="0 0 0 0 0 0 0 0 0 0 0 0 0 0 0 0 0 0 127 0" result="hardAlpha"/>
<feOffset/>
<feGaussianBlur stdDeviation="4.6"/>
<feComposite in2="hardAlpha" operator="out"/>
<feColorMatrix type="matrix" values="0 0 0 0 0 0 0 0 0 0 0 0 0 0 0 0 0 0 0.25 0"/>
<feBlend mode="normal" in2="BackgroundImageFix" result="effect1_dropShadow_507_1337"/>
<feBlend mode="normal" in="SourceGraphic" in2="effect1_dropShadow_507_1337" result="shape"/>
</filter>
<clipPath id="clip0_507_1337">
<rect width="402" height="874" fill="white"/>
</clipPath>
<clipPath id="clip1_507_1337">
<rect x="-23" y="528" width="428" height="12" rx="6" fill="white"/>
</clipPath>
</defs>
</svg>
