<svg width="53" height="54" viewBox="0 0 53 54" fill="none" xmlns="http://www.w3.org/2000/svg">
<path d="M52.9997 26.765C52.9997 11.9831 41.1353 0 26.4997 0C11.8641 0 0 11.9831 0 26.765H52.9997Z" fill="#FFADC7"/>
<path d="M30.1053 8.45893C31.7967 -0.129212 21.2032 -0.129212 22.8947 8.45893C21.2032 -0.129212 11.4164 3.96528 16.233 11.2458C11.4164 3.96528 3.92585 11.5307 11.1343 16.3955C3.92585 11.5307 -0.128096 21.4154 8.37501 23.1238C-0.128096 21.4154 -0.128096 32.1146 8.37501 30.4065C-0.128096 32.1149 3.92585 41.9996 11.1343 37.1349C3.92585 41.9996 11.4164 49.565 16.233 42.2845C11.4164 49.565 21.2032 53.6595 22.8947 45.0714C21.2032 53.6595 31.7964 53.6595 30.1053 45.0714C31.7967 53.6595 41.5836 49.565 36.767 42.2845C41.5836 49.565 49.0741 41.9996 41.8657 37.1349C49.0741 41.9996 53.1281 32.1149 44.625 30.4065C53.1281 32.1149 53.1281 21.4154 44.625 23.1238C53.1281 21.4154 49.0741 11.5307 41.8657 16.3955C49.0741 11.5307 41.5836 3.96528 36.767 11.2458C41.5836 3.96528 31.7964 -0.129212 30.1053 8.45893Z" fill="#1F6636"/>
<path d="M0 26.7649C0 41.5468 11.8644 53.5299 26.5 53.5299C41.1356 53.5299 53 41.5468 53 26.7649H0Z" fill="#FF4026"/>
<path d="M38.1992 15.5693C35.2743 12.4568 31.042 10.5099 26.5007 10.519C21.8947 10.4932 17.3243 12.5871 14.3157 16.1073C11.8441 18.9803 10.3817 22.6406 10.3477 26.6976C10.3477 35.7076 17.5792 43.0115 26.5 43.0115C35.4208 43.0115 42.6524 35.7076 42.6524 26.6976C42.6446 22.5917 41.0147 18.5297 38.1992 15.5693Z" fill="#FFADC7"/>
<mask id="mask0_51_1093" style="mask-type:luminance" maskUnits="userSpaceOnUse" x="7" y="0" width="39" height="44">
<path d="M45.919 0.577148H7.08069V22.1164H11.029C10.5985 23.5667 10.3608 25.1005 10.3473 26.6975C10.3473 35.7075 17.5789 43.0114 26.4997 43.0114C35.4205 43.0114 42.6521 35.7075 42.6521 26.6975C42.6493 25.145 42.4137 23.5992 41.9704 22.1164H45.9187V0.577148H45.919Z" fill="white"/>
</mask>
<g mask="url(#mask0_51_1093)">
<path d="M41.653 43.0113H11.3471L16.1034 7.62256H24.8342L41.653 43.0113Z" fill="#F3E7DE"/>
<path d="M31.0157 7.62256H23.1168L30.9104 20.7144L41.653 14.9706V9.86449L33.8643 9.86954L31.0157 7.62256Z" fill="#F3E7DE"/>
<path d="M16.4233 12.8684H14.3913C12.7099 12.8684 11.3471 11.4917 11.3471 9.79346H16.4233V12.8684Z" fill="#3C9155"/>
<path d="M27.2592 11.354C27.2592 10.4922 27.9509 9.79395 28.8038 9.79395C29.657 9.79395 30.3484 10.4926 30.3484 11.354" fill="#1F6636"/>
<path d="M41.3527 12.8685H41.6526V9.8645L38.312 9.86672C38.351 11.5309 39.696 12.8685 41.3527 12.8685Z" fill="#FF4026"/>
<path d="M27.9372 50.4523C27.9372 50.4523 9.68158 43.6719 9.68158 35.3078V26.7651H42.9317V35.3078C42.9317 43.6719 27.9372 50.4523 27.9372 50.4523Z" fill="#FF4026"/>
<path d="M37.0504 28.8667C37.0504 30.8666 38.655 32.4882 40.6345 32.4882C42.614 32.4882 44.2186 30.8669 44.2186 28.8667" fill="#3C9155"/>
<path d="M29.882 28.8667C29.882 30.8666 31.4865 32.4882 33.466 32.4882C35.4455 32.4882 37.0501 30.8669 37.0501 28.8667" fill="#3C9155"/>
<path d="M22.7138 28.8667C22.7138 30.8666 24.3184 32.4882 26.2979 32.4882C28.2774 32.4882 29.8819 30.8669 29.8819 28.8667" fill="#3C9155"/>
<path d="M15.5457 28.8667C15.5457 30.8666 17.1502 32.4882 19.1297 32.4882C21.1092 32.4882 22.7138 30.8669 22.7138 28.8667" fill="#3C9155"/>
<path d="M8.37714 28.8667C8.37714 30.8666 9.98172 32.4882 11.9612 32.4882C13.9407 32.4882 15.5453 30.8669 15.5453 28.8667" fill="#3C9155"/>
<path d="M37.0504 34.7073C37.0504 36.7072 38.655 38.3288 40.6345 38.3288C42.614 38.3288 44.2186 36.7075 44.2186 34.7073" fill="#3C9155"/>
<path d="M29.882 34.7073C29.882 36.7072 31.4865 38.3288 33.466 38.3288C35.4455 38.3288 37.0501 36.7075 37.0501 34.7073" fill="#3C9155"/>
<path d="M22.7138 34.7073C22.7138 36.7072 24.3184 38.3288 26.2979 38.3288C28.2774 38.3288 29.8819 36.7075 29.8819 34.7073" fill="#3C9155"/>
<path d="M15.5457 34.7073C15.5457 36.7072 17.1502 38.3288 19.1297 38.3288C21.1092 38.3288 22.7138 36.7075 22.7138 34.7073" fill="#3C9155"/>
<path d="M8.37714 34.7073C8.37714 36.7072 9.98172 38.3288 11.9612 38.3288C13.9407 38.3288 15.5453 36.7075 15.5453 34.7073" fill="#3C9155"/>
<path d="M28.1565 26.7651H24.4568V48.6014H28.1565V26.7651Z" fill="#1F6636"/>
</g>
<path d="M47.5074 32.7814C47.9922 32.7814 48.3852 32.3844 48.3852 31.8947C48.3852 31.405 47.9922 31.0081 47.5074 31.0081C47.0225 31.0081 46.6295 31.405 46.6295 31.8947C46.6295 32.3844 47.0225 32.7814 47.5074 32.7814Z" fill="#3C9155"/>
<path d="M5.49258 31.0085C5.00771 31.0085 4.61469 31.4055 4.61469 31.8952C4.61469 32.385 5.00771 32.7819 5.49258 32.7819C5.97746 32.7819 6.37048 32.385 6.37048 31.8952C6.37017 31.4055 5.97714 31.0085 5.49258 31.0085Z" fill="#3C9155"/>
</svg>
