<svg width="51" height="54" viewBox="0 0 51 54" fill="none" xmlns="http://www.w3.org/2000/svg">
<path d="M35.8767 0H15.1233L0 19.4109H51L35.8767 0Z" fill="#FF4026"/>
<path d="M51 45.1841H0V53.641H51V45.1841Z" fill="#FF4026"/>
<path d="M51 19.4109H25.4824V45.1837H51V19.4109Z" fill="#FFADC7"/>
<path d="M43.5282 32.2838L47.385 26.9337L40.873 27.6664L38.2139 21.6179L35.5861 27.68L29.0705 26.9817L32.9544 32.3114L29.0979 37.6615L35.6098 36.9288L38.2686 42.9773L40.8967 36.9152L47.4123 37.6136L43.5282 32.2838Z" fill="#1F6636"/>
<path d="M38.5879 25.2037L37.876 25.2046L37.8945 39.3914L38.6064 39.3905L38.5879 25.2037Z" fill="white"/>
<path d="M42.562 31.927L33.9224 31.9453L33.9239 32.6643L42.5635 32.646L42.562 31.927Z" fill="white"/>
<path d="M40.0809 29.9144L35.8958 34.1665L36.4009 34.6736L40.586 30.4215L40.0809 29.9144Z" fill="white"/>
<path d="M36.3869 29.928L35.8848 30.4382L40.0954 34.6646L40.5974 34.1543L36.3869 29.928Z" fill="white"/>
<path d="M25.5176 19.4109H0V45.1837H25.5176V19.4109Z" fill="#1F6636"/>
<path d="M3.72402 41.4229H21.7938L21.7938 23.1724L3.72402 23.1724L3.72402 41.4229Z" fill="#FF4026"/>
<path d="M11.1327 23.1724H13.6111L21.7937 31.4371V33.94L11.1327 23.1724Z" fill="#FFADC7"/>
<path d="M17.0227 23.1724H19.5011L21.7937 25.4882V27.9911L17.0227 23.1724Z" fill="#FFADC7"/>
<path d="M5.2428 23.1724H7.7212L21.7938 37.3859V39.8888L5.2428 23.1724Z" fill="#FFADC7"/>
<path d="M3.724 39.4846V36.9814L8.12103 41.4228H5.64293L3.724 39.4846Z" fill="#FFADC7"/>
<path d="M3.724 33.5361V31.033L14.011 41.4231H11.5329L3.724 33.5361Z" fill="#FFADC7"/>
<path d="M3.724 27.5869V25.0837L19.901 41.4228H17.4229L3.724 27.5869Z" fill="#FFADC7"/>
<path d="M13.4707 23.1724H12.0469V41.4228H13.4707V23.1724Z" fill="white"/>
<path d="M21.7937 31.5784H3.724V33.0164H21.7937V31.5784Z" fill="white"/>
<path d="M25.5203 51.6999L21.5354 48.0778L17.5503 51.6996L13.5648 48.0778L9.86494 51.4403L8.91254 50.3709L13.5648 46.1431L17.5503 49.7649L21.5354 46.1431L25.52 49.7649L29.5034 46.1431L33.4879 49.7649L37.4719 46.1431L42.123 50.3712L41.1703 51.4403L37.4719 48.0778L33.4879 51.6999L29.5034 48.0778L25.5203 51.6999Z" fill="white"/>
<path d="M31.7518 2.77148C31.2852 2.77148 30.907 3.15346 30.907 3.62471C30.907 4.09595 31.2852 4.47793 31.7518 4.47793C32.2184 4.47793 32.5966 4.09595 32.5966 3.62471C32.5963 3.15346 32.2181 2.77148 31.7518 2.77148Z" fill="white"/>
<path d="M25.5002 2.77148C25.0336 2.77148 24.6555 3.15346 24.6555 3.62471C24.6555 4.09595 25.0336 4.47793 25.5002 4.47793C25.9668 4.47793 26.345 4.09595 26.345 3.62471C26.3447 3.15346 25.9665 2.77148 25.5002 2.77148Z" fill="white"/>
<path d="M19.2485 2.77148C18.7819 2.77148 18.4037 3.15346 18.4037 3.62471C18.4037 4.09595 18.7819 4.47793 19.2485 4.47793C19.7151 4.47793 20.0933 4.09595 20.0933 3.62471C20.093 3.15346 19.7148 2.77148 19.2485 2.77148Z" fill="white"/>
</svg>
