<?xml version="1.0" encoding="UTF-8"?>
<svg id="MAISON_JAUNE" data-name="MAISON JAUNE" xmlns="http://www.w3.org/2000/svg" xmlns:xlink="http://www.w3.org/1999/xlink" viewBox="0 0 188.06 174.09">
  <defs>
    <filter id="drop-shadow-1" x="97.85" y="101.7" width="24" height="42" filterUnits="userSpaceOnUse">
      <feOffset dx="0" dy="2.83"/>
      <feGaussianBlur result="blur" stdDeviation="2.83"/>
      <feFlood flood-color="#1d1d1b" flood-opacity=".28"/>
      <feComposite in2="blur" operator="in"/>
      <feComposite in="SourceGraphic"/>
    </filter>
    <filter id="drop-shadow-2" x="121.85" y="101.7" width="24" height="42" filterUnits="userSpaceOnUse">
      <feOffset dx="0" dy="2.83"/>
      <feGaussianBlur result="blur-2" stdDeviation="2.83"/>
      <feFlood flood-color="#1d1d1b" flood-opacity=".62"/>
      <feComposite in2="blur-2" operator="in"/>
      <feComposite in="SourceGraphic"/>
    </filter>
    <filter id="drop-shadow-3" x="101.85" y="125.7" width="40" height="21" filterUnits="userSpaceOnUse">
      <feOffset dx="0" dy="2.83"/>
      <feGaussianBlur result="blur-3" stdDeviation="2.83"/>
      <feFlood flood-color="#1d1d1b" flood-opacity=".62"/>
      <feComposite in2="blur-3" operator="in"/>
      <feComposite in="SourceGraphic"/>
    </filter>
  </defs>
  <polygon points="44.78 145.07 40.24 98.99 70.09 61.97 97.31 93.25 149.61 95.64 145.55 147.22 44.78 145.07" style="fill: #f4ba65;"/>
  <g>
    <polygon points="62.33 74.87 62.33 97.43 78.93 97.43 79.52 74.87 62.33 74.87" style="fill: #f1eecc;"/>
    <rect x="64.18" y="76.18" width="13.61" height="19.94" style="fill: #cba36f;"/>
    <rect x="71.22" y="77.73" width="5.19" height="6.69" style="fill: #f3e5cd;"/>
    <rect x="71.22" y="86.81" width="4.96" height="7.04" style="fill: #f3e5cd;"/>
    <rect x="65.97" y="77.73" width="3.22" height="6.69" style="fill: #f3e5cd;"/>
    <rect x="65.97" y="86.81" width="3.22" height="6.69" style="fill: #f3e5cd;"/>
  </g>
  <g>
    <rect x="107.28" y="108" width="5.64" height="23.82" style="fill: #c58351; filter: url(#drop-shadow-1);"/>
    <rect x="131.19" y="108" width="5.64" height="23.82" style="fill: #c58351; filter: url(#drop-shadow-2);"/>
    <rect x="112.48" y="107.1" width="18.9" height="24.27" style="fill: #f5f7f2;"/>
    <rect x="114.09" y="109.61" width="6.18" height="9.31" style="fill: #d7edf5; stroke: #01232c; stroke-miterlimit: 10; stroke-width: .25px;"/>
    <rect x="122.87" y="108.99" width="6.18" height="9.31" style="fill: #d7edf5; stroke: #01232c; stroke-miterlimit: 10; stroke-width: .25px;"/>
    <rect x="122.87" y="121.61" width="6.18" height="7.43" style="fill: #d7edf5; stroke: #01232c; stroke-miterlimit: 10; stroke-width: .22px;"/>
    <rect x="114.54" y="121.61" width="6.18" height="7.43" style="fill: #d7edf5; stroke: #01232c; stroke-miterlimit: 10; stroke-width: .22px;"/>
    <rect x="110.87" y="131.82" width="21.67" height="2.96" style="fill: #fef7ec; filter: url(#drop-shadow-3);"/>
  </g>
  <path d="M54.01,145.88s-4.36-40.66,14.3-41.1c0,0,16.42-.9,16.51,18.81l-.36,23.1h-30.27l-.18-.81Z" style="fill: #f9f9f1; stroke: #c58351; stroke-miterlimit: 10; stroke-width: .5px;"/>
  <path d="M56.87,146.33s-3.04-36.09,9.4-37.34c0,0,13.79-2.6,14.42,13.61s0,.45,0,.45l.63,23.28h-24.45Z" style="fill: #f4ba64; stroke: #c58351; stroke-miterlimit: 10; stroke-width: .5px;"/>
  <g>
    <rect x="71.22" y="126.18" width="7.4" height="17.64" style="fill: none; stroke: #c58351; stroke-miterlimit: 10; stroke-width: .5px;"/>
    <rect x="60.93" y="126.18" width="7.4" height="17.64" style="fill: none; stroke: #c58351; stroke-miterlimit: 10; stroke-width: .5px;"/>
    <path d="M71.22,122.06v-9.58s6.49.72,7.02,9.58h-7.02Z" style="fill: none; stroke: #c58351; stroke-miterlimit: 10; stroke-width: .5px;"/>
    <path d="M68.33,122.06v-9.58s-6.49.72-7.02,9.58h7.02Z" style="fill: none; stroke: #c58351; stroke-miterlimit: 10; stroke-width: .5px;"/>
  </g>
  <path d="M69.17,65.24l-21.25,24.56c-1.9,2.19-3.49,4.65-4.6,7.33-1.47,3.57-4.46,8.31-9.11,4.6l-1.79-5.61h0c-1.09,0-1.97-.88-1.97-1.97v-1.06c0-2.75.95-5.41,2.68-7.55l26.05-32.06c2.33-2.87,5.71-4.81,9.41-5.06,1.82-.12,3.79.14,5.71,1.16,1.73.92,3.68,1.32,5.63,1.36l48.13,1s3.58.54,8.78,6.63,15.58,20.24,18.99,24.18,6.27,12.36-.72,12.18c-5.83-.15-42.25-.8-54.12-1.01-2.38-.04-4.61-1.11-6.14-2.93l-21.61-25.72c-1.06-1.26-2.99-1.27-4.07-.03Z" style="fill: #fbfcfd; stroke: #edf4f7; stroke-miterlimit: 10; stroke-width: .25px;"/>
  <path d="M86.33,41.55v12.72h6.96c.91-.09,2.5-1.17,2.69-1.31.01-.01.02-.01.02-.01v-11.4h-9.67Z" style="fill: #b86654;"/>
  <path d="M33.59,91.38c3.06-4.72,6.39-9.27,9.95-13.63,1.79-2.19,3.64-4.33,5.49-6.47,4.91-5.68,9.83-11.37,14.74-17.05,1.64-1.9,3.75-3.99,6.23-3.6,2.72.43,4.04,3.49,6.15,5.26.9.76,1.98,1.28,2.96,1.92,3.62,2.35,5.96,6.17,8.73,9.49,4.85,5.81,11.42,10.56,14.02,17.67" style="fill: none;"/>
  <path d="M85.48,38.95l.07-.62c.01.33.31.59.63.67s.65.02.98-.03c1.26-.23,2.53-.45,3.79-.68,1.64-.29,3.32-.59,4.95-.25" style="fill: none;"/>
  <path d="M32.87,92.79c6.98-8.63,13.66-17.51,20.01-26.62,3.21-4.59,6.38-9.3,10.61-12.97,1.54-1.34,3.46-2.58,5.47-2.26,1.29.21,2.39,1.04,3.42,1.84,6.42,4.98,12.93,10.06,17.7,16.65,1.44,1.99,2.7,4.13,4.34,5.97,5.46,6.15,10.29,9.01,13.88,8.76" style="fill: none; stroke: #edf4f7; stroke-linecap: round; stroke-miterlimit: 10; stroke-width: 8px;"/>
  <path d="M85.93,40.02c.43-.56,1.19-.75,1.9-.76s1.4.15,2.11.13c.99-.02,1.94-.37,2.93-.43.97-.06,2,.17,2.89-.22" style="fill: none; stroke: #edf4f7; stroke-linecap: round; stroke-miterlimit: 10; stroke-width: 6px;"/>
  <g>
    <path d="M112.79,84.12l22.92-.24s3.65-17.07-9.3-19.82-15.01,13.19-13.62,20.06Z" style="fill: #f5f7f2; opacity: .27; stroke: #01232c; stroke-miterlimit: 10; stroke-width: .26px;"/>
    <path d="M117.18,80.6h15.24s1.25-12.9-6.93-13.01-9.82,6.21-8.31,13.01Z" style="fill: #f5f7f2; opacity: .44; stroke: #01232c; stroke-miterlimit: 10; stroke-width: .26px;"/>
    <line x1="124.25" y1="67.58" x2="124.84" y2="80.6" style="fill: #f5f7f2; stroke: #01232c; stroke-miterlimit: 10; stroke-width: .29px;"/>
    <line x1="116.68" y1="74.51" x2="131.94" y2="74.87" style="fill: #f5f7f2; stroke: #01232c; stroke-miterlimit: 10; stroke-width: .26px;"/>
  </g>
  <path d="M38.42,150.61c4.61-2.24,10.1-2.13,15.36-1.98,7.88.22,15.75.45,23.63.67,5.19.15,10.4.29,15.53-.21,7.12-.69,14.05-2.63,21.26-2.55,8.26.1,16.52,2.85,24.75,2.6,5.57-.17,11.63-1.59,16.45,1.54" style="fill: none; stroke: #fbfbfb; stroke-linecap: round; stroke-miterlimit: 10; stroke-width: 7.7px;"/>
</svg>