<?xml version="1.0" encoding="UTF-8"?>
<svg id="MAISON_ROUGE" data-name="MAISON ROUGE" xmlns="http://www.w3.org/2000/svg" viewBox="0 0 170.04 180.51">
  <g>
    <rect x="44.87" y="107.25" width="82.94" height="47.95" style="fill: #ba3b30;"/>
    <polygon points="112.02 47.37 87.93 22.76 63.03 47.9 49.22 47.9 49.22 95.84 123.46 95.84 123.46 47.9 112.02 47.37" style="fill: #ba3b30;"/>
  </g>
  <g>
    <path d="M63.03,84.44v-26.3h12.1s3.03-11.75,14.2-10.71c7.04.66,9.08,11.4,9.08,11.4h12.57v27.23h-47.95" style="fill: #f8f1f4;"/>
    <g>
      <rect x="51.39" y="119.12" width="17.69" height="22.11" style="fill: #fafaf8;"/>
      <rect x="52.55" y="120.46" width="15.48" height="19.49" style="fill: #285164;"/>
      <line x1="60.23" y1="119.58" x2="60.23" y2="140.47" style="fill: none; stroke: #fafaf8; stroke-miterlimit: 10; stroke-width: .65px;"/>
      <line x1="68.55" y1="130.03" x2="51.42" y2="130.03" style="fill: none; stroke: #fafaf8; stroke-miterlimit: 10; stroke-width: .65px;"/>
    </g>
    <g>
      <rect x="103.7" y="119.12" width="17.69" height="22.11" style="fill: #fafaf8;"/>
      <rect x="104.86" y="120.46" width="15.48" height="19.49" style="fill: #285164;"/>
      <line x1="112.54" y1="119.58" x2="112.54" y2="140.47" style="fill: none; stroke: #fafaf8; stroke-miterlimit: 10; stroke-width: .65px;"/>
      <line x1="120.86" y1="130.03" x2="103.73" y2="130.03" style="fill: none; stroke: #fafaf8; stroke-miterlimit: 10; stroke-width: .65px;"/>
    </g>
    <g>
      <rect x="64.83" y="63.2" width="9.95" height="20.42" style="fill: #285164;"/>
      <line x1="69.8" y1="61.45" x2="69.8" y2="84.5" style="fill: none; stroke: #f8f1f4; stroke-miterlimit: 10; stroke-width: .65px;"/>
      <line x1="64.02" y1="69.78" x2="75.83" y2="69.78" style="fill: none; stroke: #f8f1f4; stroke-miterlimit: 10; stroke-width: .65px;"/>
      <line x1="64.02" y1="78.1" x2="75.83" y2="78.1" style="fill: none; stroke: #f8f1f4; stroke-miterlimit: 10; stroke-width: .65px;"/>
    </g>
    <g>
      <rect x="98.64" y="63.2" width="9.95" height="20.42" style="fill: #285164;"/>
      <line x1="103.61" y1="61.45" x2="103.61" y2="84.5" style="fill: none; stroke: #f8f1f4; stroke-miterlimit: 10; stroke-width: .65px;"/>
      <line x1="97.82" y1="69.78" x2="109.63" y2="69.78" style="fill: none; stroke: #f8f1f4; stroke-miterlimit: 10; stroke-width: .65px;"/>
      <line x1="97.82" y1="78.1" x2="109.63" y2="78.1" style="fill: none; stroke: #f8f1f4; stroke-miterlimit: 10; stroke-width: .65px;"/>
    </g>
    <g>
      <path d="M76.87,83.62v-24.51c0-.63.12-1.26.36-1.84,1.02-2.54,4.34-9.1,11.1-8.68,4.21.26,6.72,5.26,7.78,7.98.4,1.02.6,2.09.6,3.19v23.86h-19.84Z" style="fill: #285164;"/>
      <g>
        <line x1="87.35" y1="47.78" x2="87.35" y2="84.5" style="fill: none; stroke: #f8f1f4; stroke-miterlimit: 10; stroke-width: .65px;"/>
        <line x1="75.54" y1="58.84" x2="97.82" y2="58.84" style="fill: none; stroke: #f8f1f4; stroke-miterlimit: 10; stroke-width: .65px;"/>
        <line x1="75.54" y1="65.59" x2="97.82" y2="65.59" style="fill: none; stroke: #f8f1f4; stroke-miterlimit: 10; stroke-width: .65px;"/>
        <line x1="75.83" y1="72.63" x2="97.53" y2="72.63" style="fill: none; stroke: #f8f1f4; stroke-miterlimit: 10; stroke-width: .65px;"/>
        <line x1="75.83" y1="78.5" x2="97.53" y2="78.5" style="fill: none; stroke: #f8f1f4; stroke-miterlimit: 10; stroke-width: .65px;"/>
        <line x1="78.62" y1="52.73" x2="96.08" y2="52.73" style="fill: none; stroke: #f8f1f4; stroke-miterlimit: 10; stroke-width: .65px;"/>
      </g>
    </g>
  </g>
  <g>
    <path d="M92.94,119.94c0-5.11-3.34-9.26-7.45-9.26s-7.45,4.15-7.45,9.26v33.93h14.9v-33.93s0,0,0,0Z" style="fill: #fafaf8;"/>
    <g>
      <path d="M80.5,114.05l4.51,5.6h-6.25c0-2.16.66-4.13,1.74-5.6Z" style="fill: #285164;"/>
      <path d="M85.15,111.3v7.34l-4.17-5.19c1.11-1.26,2.57-2.06,4.17-2.16Z" style="fill: #285164;"/>
      <path d="M90,113.45l-4.17,5.19v-7.34c1.6.1,3.06.9,4.17,2.15Z" style="fill: #285164;"/>
      <path d="M92.22,119.65h-6.25l4.51-5.6c1.08,1.48,1.74,3.45,1.74,5.6Z" style="fill: #285164;"/>
    </g>
  </g>
  <rect x="78.75" y="120.69" width="13.46" height="33.19" style="fill: #26796d;"/>
  <circle cx="85.49" cy="129.16" r="3.45" style="fill: none; stroke: #7f1d24; stroke-miterlimit: 10; stroke-width: 1.3px;"/>
  <polygon points="98.4 33 115.16 48.6 130.29 48.6 121.68 33 98.4 33" style="fill: #556f7e;"/>
  <polygon points="49.22 95.84 123.46 95.84 134.71 111.2 39.98 111.2 49.22 95.84" style="fill: #556f7e;"/>
  <polygon points="44.87 48.6 53.45 33 74.78 33 59.83 48.6 44.87 48.6" style="fill: #556f7e;"/>
  <path d="M44.42,156.31c3.35-1.63,7.33-1.55,11.15-1.44,5.72.16,11.44.32,17.15.48,3.77.11,7.57-.65,11.28-.16,5.29.71,10.29-.99,15.43-1.86,5.91-1,11.99,1.79,17.97,1.88,4.83.07,10.51-.63,11.94,1.11" style="fill: none; stroke: #fbfbfb; stroke-linecap: round; stroke-miterlimit: 10; stroke-width: 6.5px;"/>
  <path d="M54.18,32.99c4.14-1.42,14-1.85,18.21-1.17" style="fill: none; stroke: #fbfbfb; stroke-linecap: round; stroke-miterlimit: 10; stroke-width: 7px;"/>
  <path d="M101.52,32.56c4.2-1.22,14.07-1.18,18.25-.31" style="fill: none; stroke: #fbfbfb; stroke-linecap: round; stroke-miterlimit: 10; stroke-width: 7px;"/>
  <polyline points="44.87 63.85 87.98 21.95 127.61 63.85" style="fill: none; stroke: #556f7e; stroke-linecap: round; stroke-miterlimit: 10; stroke-width: 2.59px;"/>
  <path d="M46.24,64.39c-.06.97,1.36,1.18,2.3.94,1.92-.5,3.81-1.43,5.01-3.02.75-1,1.16-2.29,1.09-3.52-.05-.92.58-1.77,1.5-1.82,1.69-.09,3.36-.79,4.57-1.98s1.93-2.85,2.04-4.55c.06-.99.88-1.71,1.87-1.65,1.73.1,3.5-.52,4.72-1.76,1.1-1.12,1.68-2.7,1.68-4.27,0-.98.8-1.82,1.78-1.7,1.68.2,3.45-.33,4.66-1.52,1.07-1.05,1.63-2.56,1.62-4.06,0-1.08.92-1.92,1.98-1.72,1.25.23,2.54.11,3.67-.47,1.34-.7,2.22-1.95,2.39-3.43.07-.55.79-.74,1.14-.3,1.46,1.81,3.04,2.68,6.39,3.08.16.02.22.24.07.31-1.09.56-1.72,2-1.5,3.26.26,1.54,1.42,2.77,2.68,3.68,1.5,1.09,3.43,1.86,5.23,1.74.94-.06,1.75.64,1.79,1.58.04,1.28.49,2.54,1.3,3.53,1.28,1.58,3.43,2.42,5.45,2.11.21-.03.44-.07.63.02.37.18.38.69.38,1.1.02,1.95,1.27,3.73,2.85,4.87,1.17.84,2.51,1.38,3.89,1.83.74.24,1.23.96,1.15,1.74-.15,1.44.36,2.96,1.39,3.98,1.36,1.33,3.54,1.74,5.29.99" style="fill: none; stroke: #29533d; stroke-miterlimit: 10; stroke-width: 2.6px;"/>
  <g>
    <path d="M82.13,26.94v5.13c0,.49.51.8.95.58l4.73-2.37c.46-.23.48-.89.04-1.15l-4.73-2.76c-.44-.25-.98.06-.98.56Z" style="fill: #df362f;"/>
    <path d="M93.73,32.34v-5.13c0-.49-.51-.8-.95-.58l-4.73,2.37c-.46.23-.48.89-.04,1.15l4.73,2.76c.44.25.98-.06.98-.56Z" style="fill: #df362f;"/>
    <circle cx="88.04" cy="29.56" r="1.54" style="fill: #df362f;"/>
  </g>
</svg>