<?xml version="1.0" encoding="UTF-8"?>
<svg id="MAISON_BLEUE" data-name="MAISON BLEUE" xmlns="http://www.w3.org/2000/svg" viewBox="0 0 189.99 180.85">
  <rect x="50.15" y="63" width="76.66" height="89.55" style="fill: #205e81;"/>
  <polygon points="88.84 14.28 44.06 63 132.9 63 88.84 14.28" style="fill: #2681ae;"/>
  <g>
    <polygon points="79.16 91.18 79.16 71.72 58.75 71.72 58.75 91.18 57.31 91.18 57.31 96.31 80.48 96.31 80.48 91.18 79.16 91.18" style="fill: #a1cddb;"/>
    <g>
      <rect x="59.78" y="72.67" width="8.66" height="8.66" style="fill: #ea983e;"/>
      <rect x="69.35" y="72.67" width="8.66" height="8.66" style="fill: #ea983e;"/>
      <rect x="59.78" y="82.46" width="8.66" height="8.66" style="fill: #ea983e;"/>
      <rect x="69.35" y="82.46" width="8.66" height="8.66" style="fill: #ea983e;"/>
    </g>
  </g>
  <g>
    <polygon points="119.28 91.18 119.28 71.72 98.87 71.72 98.87 91.18 97.43 91.18 97.43 96.31 120.6 96.31 120.6 91.18 119.28 91.18" style="fill: #a1cddb;"/>
    <g>
      <rect x="99.9" y="72.67" width="8.66" height="8.66" style="fill: #ea983e;"/>
      <rect x="109.47" y="72.67" width="8.66" height="8.66" style="fill: #ea983e;"/>
      <rect x="99.9" y="82.46" width="8.66" height="8.66" style="fill: #ea983e;"/>
      <rect x="109.47" y="82.46" width="8.66" height="8.66" style="fill: #ea983e;"/>
    </g>
  </g>
  <g>
    <polygon points="119.28 125.09 119.28 105.63 98.87 105.63 98.87 125.09 97.43 125.09 97.43 130.22 120.6 130.22 120.6 125.09 119.28 125.09" style="fill: #a1cddb;"/>
    <g>
      <rect x="99.9" y="106.58" width="8.66" height="8.66" style="fill: #ea983e;"/>
      <rect x="109.47" y="106.58" width="8.66" height="8.66" style="fill: #ea983e;"/>
      <rect x="99.9" y="116.37" width="8.66" height="8.66" style="fill: #ea983e;"/>
      <rect x="109.47" y="116.37" width="8.66" height="8.66" style="fill: #ea983e;"/>
    </g>
  </g>
  <path d="M79.84,117.33c0-6.13-4.97-11.1-11.1-11.1s-11.1,4.97-11.1,11.1v34.39h22.21v-34.39s0,0,0,0Z" style="fill: #a1cddb;"/>
  <g>
    <g>
      <rect x="58.71" y="133.87" width="9.53" height="7.33" style="fill: #ea983e;"/>
      <rect x="69.24" y="133.87" width="9.53" height="7.33" style="fill: #ea983e;"/>
      <rect x="58.71" y="142.15" width="9.53" height="7.33" style="fill: #ea983e;"/>
      <rect x="69.24" y="142.15" width="9.53" height="7.33" style="fill: #ea983e;"/>
    </g>
    <g>
      <rect x="58.71" y="117.93" width="9.53" height="7.1" style="fill: #ea983e;"/>
      <rect x="69.24" y="117.93" width="9.53" height="7.1" style="fill: #ea983e;"/>
      <rect x="58.71" y="125.96" width="9.53" height="7.1" style="fill: #ea983e;"/>
      <rect x="69.24" y="125.96" width="9.53" height="7.1" style="fill: #ea983e;"/>
    </g>
  </g>
  <g>
    <path d="M61.3,110.26l6.72,6.72h-9.32c0-2.59.99-4.95,2.6-6.72Z" style="fill: #f5d17b;"/>
    <path d="M68.23,106.97v8.8l-6.22-6.22c1.66-1.51,3.83-2.46,6.22-2.59Z" style="fill: #f5d17b;"/>
    <path d="M75.46,109.55l-6.22,6.23v-8.8c2.38.12,4.56,1.08,6.22,2.58Z" style="fill: #f5d17b;"/>
    <path d="M78.77,116.98h-9.32l6.72-6.72c1.61,1.77,2.6,4.14,2.6,6.72Z" style="fill: #f5d17b;"/>
  </g>
  <g>
    <polygon points="77.25 49.51 77.25 61.57 96 61.57 96 50.46 86.63 44.01 77.25 49.51" style="fill: #fff;"/>
    <rect x="82.39" y="50.46" width="7.04" height="6.21" style="fill: #ea983e;"/>
    <polyline points="75.64 50.28 86.75 43.11 97.61 50.99" style="fill: none; stroke: #f6d27d; stroke-linecap: round; stroke-miterlimit: 10; stroke-width: 2px;"/>
  </g>
  <g id="_Grouppointillése_" data-name="&amp;lt;Grouppointillése&amp;gt;">
    <circle cx="54.33" cy="62.52" r="1.43" style="fill: #f5f4f4;"/>
    <circle cx="59.25" cy="62.52" r="1.43" style="fill: #f5f4f4;"/>
    <circle cx="64.18" cy="62.52" r="1.43" style="fill: #f5f4f4;"/>
    <circle cx="69.1" cy="62.52" r="1.43" style="fill: #f5f4f4;"/>
    <circle cx="74.03" cy="62.52" r="1.43" style="fill: #f5f4f4;"/>
    <circle cx="78.96" cy="62.52" r="1.43" style="fill: #f5f4f4;"/>
    <circle cx="83.88" cy="62.52" r="1.43" style="fill: #f5f4f4;"/>
    <circle cx="88.81" cy="62.52" r="1.43" style="fill: #f5f4f4;"/>
    <circle cx="93.73" cy="62.52" r="1.43" style="fill: #f5f4f4;"/>
    <circle cx="98.66" cy="62.52" r="1.43" style="fill: #f5f4f4;"/>
    <circle cx="103.58" cy="62.52" r="1.43" style="fill: #f5f4f4;"/>
    <circle cx="108.51" cy="62.52" r="1.43" style="fill: #f5f4f4;"/>
    <circle cx="113.43" cy="62.52" r="1.43" style="fill: #f5f4f4;"/>
    <circle cx="118.36" cy="62.52" r="1.43" style="fill: #f5f4f4;"/>
    <circle cx="123.28" cy="62.52" r="1.43" style="fill: #f5f4f4;"/>
  </g>
  <g id="Guirelande">
    <polygon points="79.84 78.28 82.45 84.01 85.91 78.28 79.84 78.28" style="fill: #f7f8fa;"/>
    <polygon points="69.34 77.53 71.49 83.44 75.39 78 69.34 77.53" style="fill: #f7f8fa;"/>
    <polygon points="59.25 76.03 61.41 81.95 65.31 76.5 59.25 76.03" style="fill: #f7f8fa;"/>
    <polygon points="50.27 73.17 52 79.27 56 74.7 50.27 73.17" style="fill: #f7f8fa;"/>
    <polygon points="90.35 78.1 93.66 83.61 97.11 77.62 90.35 78.1" style="fill: #f7f8fa;"/>
    <polygon points="101.25 77.11 104.69 83.02 108.27 76.61 101.25 77.11" style="fill: #f7f8fa;"/>
    <polygon points="112.4 76.07 116.57 81.51 119.31 74.7 112.4 76.07" style="fill: #f7f8fa;"/>
    <polygon points="122.27 73.73 126.33 78.7 127.95 70.72 122.27 73.73" style="fill: #f7f8fa;"/>
    <path d="M48.76,72.67s20.78,7.66,50.1,4.79,29.46-7.39,29.46-7.39" style="fill: none; stroke: #f7f8fa; stroke-miterlimit: 10;"/>
  </g>
  <g>
    <path d="M43.97,61.57c.97-2.75,3.14-4.87,5.24-6.88,3.14-3.01,6.28-6.02,9.42-9.04,2.07-1.99,4.15-3.98,5.96-6.21,2.51-3.1,4.49-6.64,7.32-9.45,3.24-3.22,7.46-5.32,10.57-8.67,2.1-2.27,3.93-5.25,6.95-5.84" style="fill: none; stroke: #fbfbfb; stroke-linecap: round; stroke-miterlimit: 10; stroke-width: 4.27px;"/>
    <path d="M88.81,15.47c2.53,1,4.47,3.24,6.32,5.41,2.76,3.24,5.53,6.48,8.29,9.73,1.82,2.14,3.65,4.28,5.7,6.15,2.84,2.59,6.09,4.64,8.67,7.56,2.95,3.35,4.88,7.7,7.96,10.91,2.08,2.17,4.82,4.06,5.36,7.18" style="fill: none; stroke: #fbfbfb; stroke-linecap: round; stroke-miterlimit: 10; stroke-width: 4.15px;"/>
    <path d="M43.81,152.68c3.38-1.64,7.4-1.56,11.27-1.45,5.78.17,11.55.33,17.33.5,3.81.11,7.63.22,11.39-.15,5.22-.51,10.31-1.93,15.59-1.87,6.06.07,12.12,2.1,18.15,1.91,4.09-.13,8.53-1.17,12.06,1.13" style="fill: none; stroke: #fbfbfb; stroke-linecap: round; stroke-miterlimit: 10; stroke-width: 5.65px;"/>
  </g>
</svg>