<svg width="59" height="44" viewBox="0 0 59 44" fill="none" xmlns="http://www.w3.org/2000/svg">
<path d="M6.05332 38.5298H4.24857e-07V33.2109C-0.000406747 32.4226 0.291864 31.6561 0.83155 31.0302C1.37124 30.4042 2.12823 29.9538 2.9853 29.7486L11.2259 27.7773H54.4799C55.5502 27.7773 56.5766 28.155 57.3334 28.8271C58.0902 29.4993 58.5154 30.4109 58.5154 31.3615V38.5298H52.4621" fill="#FF4026"/>
<path d="M0.158395 34.0498C0.0581926 34.266 0.0044682 34.497 0 34.7308V38.53H58.5154V34.0498H0.158395Z" fill="#EB1111"/>
<path d="M51.4531 27.7774H11.2258L20.104 18.3143C20.4827 17.9107 20.9568 17.586 21.4925 17.3632C22.0283 17.1403 22.6127 17.0249 23.2043 17.0249H41.222C41.8863 17.0249 42.5403 17.1706 43.126 17.449C43.7118 17.7274 44.211 18.1299 44.5796 18.6208L51.4531 27.7774Z" fill="#87CED9"/>
<path d="M33.2932 17.0249H31.2754V27.7774H33.2932V17.0249Z" fill="#ADEBFF"/>
<path d="M11.0977 43.0102C13.8836 43.0102 16.1421 41.0044 16.1421 38.53C16.1421 36.0557 13.8836 34.0498 11.0977 34.0498C8.31169 34.0498 6.05322 36.0557 6.05322 38.53C6.05322 41.0044 8.31169 43.0102 11.0977 43.0102Z" fill="#575755"/>
<path d="M47.4176 43.0102C50.2036 43.0102 52.462 41.0044 52.462 38.53C52.462 36.0557 50.2036 34.0498 47.4176 34.0498C44.6316 34.0498 42.3732 36.0557 42.3732 38.53C42.3732 41.0044 44.6316 43.0102 47.4176 43.0102Z" fill="#575755"/>
<path d="M11.0978 40.322C12.2122 40.322 13.1156 39.5196 13.1156 38.5299C13.1156 37.5401 12.2122 36.7378 11.0978 36.7378C9.9834 36.7378 9.08002 37.5401 9.08002 38.5299C9.08002 39.5196 9.9834 40.322 11.0978 40.322Z" fill="#EBEBE8"/>
<path d="M47.4177 40.322C48.5321 40.322 49.4354 39.5196 49.4354 38.5299C49.4354 37.5401 48.5321 36.7378 47.4177 36.7378C46.3033 36.7378 45.3999 37.5401 45.3999 38.5299C45.3999 39.5196 46.3033 40.322 47.4177 40.322Z" fill="#EBEBE8"/>
<path d="M49.4354 0L37.3288 4.4802V0.896041L25.2222 5.37624V1.79208L13.1155 6.31977V3.58416L0 8.96041L13.1155 14.3366V11.601L25.2222 16.1287V12.5446L37.3288 17.0248V13.4406L49.4354 17.9208V0Z" fill="#3C9155"/>
<path d="M58.5153 7.16846H49.4353V10.7526H58.5153V7.16846Z" fill="#A65B2D"/>
<path d="M24.2132 17.9213C24.1506 17.9215 24.0881 17.9164 24.0266 17.906C23.8963 17.8845 23.772 17.8404 23.6609 17.7761C23.5498 17.7119 23.454 17.6289 23.379 17.5318C23.3041 17.4347 23.2514 17.3254 23.224 17.2102C23.1966 17.095 23.1951 16.9761 23.2195 16.8604L26.2461 2.52372C26.2954 2.29011 26.4471 2.08345 26.6679 1.94918C26.8887 1.81492 27.1605 1.76406 27.4235 1.80778C27.6865 1.85151 27.9192 1.98624 28.0704 2.18235C28.2216 2.37845 28.2788 2.61986 28.2296 2.85346L25.2029 17.1901C25.1597 17.3953 25.0372 17.5806 24.8565 17.7141C24.6758 17.8476 24.4483 17.9209 24.2132 17.9213Z" fill="#FF8FAA"/>
<path d="M42.3732 17.9213C42.138 17.9211 41.9102 17.8479 41.7293 17.7144C41.5484 17.5809 41.4257 17.3954 41.3825 17.1901L38.3558 2.85346C38.3066 2.61986 38.3638 2.37845 38.515 2.18235C38.6662 1.98624 38.8989 1.85151 39.1619 1.80778C39.4249 1.76406 39.6967 1.81492 39.9175 1.94918C40.1383 2.08345 40.29 2.29011 40.3393 2.52372L43.3659 16.8604C43.3903 16.9761 43.3888 17.095 43.3614 17.2102C43.334 17.3254 43.2813 17.4347 43.2064 17.5318C43.1314 17.6289 43.0356 17.7119 42.9245 17.7761C42.8134 17.8404 42.6891 17.8845 42.5588 17.906C42.4976 17.9163 42.4355 17.9214 42.3732 17.9213Z" fill="#FF8FAA"/>
<path d="M29.2577 30.4656H25.2221V32.2577H29.2577V30.4656Z" fill="white"/>
<path d="M45.3999 30.4656H41.3644V32.2577H45.3999V30.4656Z" fill="white"/>
<path d="M23.4378 19.1397L22.4288 20.2148L23.9789 21.3622L24.9878 20.287L23.4378 19.1397Z" fill="#A7E1EB"/>
<path d="M21.4208 21.2894L18.394 24.5149L19.944 25.6622L22.9708 22.4368L21.4208 21.2894Z" fill="#A7E1EB"/>
<path d="M33.2932 27.7773H31.2754V38.5298H33.2932V27.7773Z" fill="#87CED9"/>
</svg>
